<svg width="18" height="20" viewBox="0 0 18 20" fill="none" xmlns="http://www.w3.org/2000/svg">
<path d="M1 8V14M17 8V14M4 7H14M4 7V15C4 15.2652 4.10536 15.5196 4.29289 15.7071C4.48043 15.8946 4.73478 16 5 16H13C13.2652 16 13.5196 15.8946 13.7071 15.7071C13.8946 15.5196 14 15.2652 14 15V7M4 7C4 5.67392 4.52678 4.40215 5.46447 3.46447C6.40215 2.52678 7.67392 2 9 2C10.3261 2 11.5979 2.52678 12.5355 3.46447C13.4732 4.40215 14 5.67392 14 7M5 1L6 3M13 1L12 3M6 16V19M12 16V19" stroke="white" stroke-width="2" stroke-linecap="round" stroke-linejoin="round"/>
</svg>
