<svg width="185" height="201" viewBox="0 0 185 201" fill="none" xmlns="http://www.w3.org/2000/svg">
<g opacity="0.03">
<path d="M136.984 -6.79443L91.0147 164.795" stroke="#00A7D2"/>
<path d="M199.82 56.0161L28.179 101.985" stroke="#00A7D2"/>
<path d="M51.1641 16.1899L176.836 141.81" stroke="#00A7D2"/>
<path d="M123.786 42.4685L150.542 69.2135L140.755 105.745L104.212 115.532L77.4558 88.7873L87.2429 52.2554L123.786 42.4685Z" fill="#00A7D2"/>
<path d="M140.396 -19.5251L149.72 -10.2048L146.309 2.52598L133.574 5.93657L124.25 -3.38366L127.661 -16.1145L140.396 -19.5251Z" fill="#423A5D"/>
<path d="M94.425 152.064L103.749 161.385L100.338 174.115L87.6037 177.526L78.2797 168.206L81.6904 155.475L94.425 152.064Z" fill="#423A5D"/>
<path d="M31.7942 89.0115L41.1182 98.3318L37.7076 111.063L24.9729 114.473L15.6489 105.153L19.0595 92.4221L31.7942 89.0115Z" fill="#423A5D"/>
<path d="M54.7786 3.21711L64.1026 12.5373L60.6919 25.2682L47.9573 28.6788L38.6332 19.3585L42.0439 6.6277L54.7786 3.21711Z" fill="#423A5D"/>
<path d="M180.191 128.768L189.515 138.088L186.104 150.819L173.369 154.23L164.045 144.91L167.456 132.179L180.191 128.768Z" fill="#423A5D"/>
</g>
</svg>
