<svg width="51" height="50" viewBox="0 0 51 50" fill="none" xmlns="http://www.w3.org/2000/svg">
<g filter="url(#filter0_b_88_4731)">
<rect x="0.5" width="50" height="50" rx="25" fill="#00A7D2"/>
<g clip-path="url(#clip0_88_4731)">
<path d="M26.6875 16.1875C26.6875 15.5307 26.1568 15 25.5 15C24.8432 15 24.3125 15.5307 24.3125 16.1875V25.1939L21.5887 22.4701C21.1248 22.0063 20.3715 22.0063 19.9076 22.4701C19.4438 22.934 19.4438 23.6873 19.9076 24.1512L24.6576 28.9012C25.1215 29.365 25.8748 29.365 26.3387 28.9012L31.0887 24.1512C31.5525 23.6873 31.5525 22.934 31.0887 22.4701C30.6248 22.0063 29.8715 22.0063 29.4076 22.4701L26.6875 25.1939V16.1875ZM18.375 28.0625C17.065 28.0625 16 29.1275 16 30.4375V31.625C16 32.935 17.065 34 18.375 34H32.625C33.935 34 35 32.935 35 31.625V30.4375C35 29.1275 33.935 28.0625 32.625 28.0625H28.8584L27.1773 29.7436C26.2496 30.6713 24.7467 30.6713 23.8189 29.7436L22.1416 28.0625H18.375ZM32.0312 30.1406C32.2675 30.1406 32.494 30.2345 32.661 30.4015C32.828 30.5685 32.9219 30.795 32.9219 31.0312C32.9219 31.2675 32.828 31.494 32.661 31.661C32.494 31.828 32.2675 31.9219 32.0312 31.9219C31.795 31.9219 31.5685 31.828 31.4015 31.661C31.2345 31.494 31.1406 31.2675 31.1406 31.0312C31.1406 30.795 31.2345 30.5685 31.4015 30.4015C31.5685 30.2345 31.795 30.1406 32.0312 30.1406Z" fill="white"/>
</g>
</g>
<defs>
<filter id="filter0_b_88_4731" x="-3.5" y="-4" width="58" height="58" filterUnits="userSpaceOnUse" color-interpolation-filters="sRGB">
<feFlood flood-opacity="0" result="BackgroundImageFix"/>
<feGaussianBlur in="BackgroundImageFix" stdDeviation="2"/>
<feComposite in2="SourceAlpha" operator="in" result="effect1_backgroundBlur_88_4731"/>
<feBlend mode="normal" in="SourceGraphic" in2="effect1_backgroundBlur_88_4731" result="shape"/>
</filter>
<clipPath id="clip0_88_4731">
<rect width="19" height="19" fill="white" transform="translate(16 15)"/>
</clipPath>
</defs>
</svg>
