<svg width="38" height="38" viewBox="0 0 38 38" fill="none" xmlns="http://www.w3.org/2000/svg">
<g clip-path="url(#clip0_211_5404)">
<path d="M25.8313 8.62425C26.3205 8.51274 26.7535 8.22833 27.0513 7.82292C27.3491 7.41751 27.4918 6.91809 27.4534 6.41579C27.4149 5.91351 27.198 5.44183 26.8421 5.08683C26.4861 4.73182 26.015 4.51714 25.5145 4.48196C25.0141 4.44679 24.5177 4.59345 24.116 4.89521C23.7143 5.19696 23.4341 5.63368 23.3263 6.1257C23.2186 6.61771 23.2906 7.13222 23.5292 7.57534C23.7679 8.01845 24.1572 8.36067 24.6262 8.53954L24.1682 11.6922L17.594 10.7845L17.2686 7.45637C17.7906 7.3008 18.2393 6.96166 18.5326 6.50103C18.826 6.04043 18.9443 5.48916 18.866 4.94809C18.7877 4.40702 18.518 3.91236 18.1063 3.55462C17.6946 3.19688 17.1683 3 16.6238 3C16.0794 3 15.5531 3.19688 15.1414 3.55462C14.7296 3.91236 14.46 4.40702 14.3817 4.94809C14.3034 5.48916 14.4217 6.04043 14.7151 6.50103C15.0084 6.96166 15.4571 7.3008 15.9791 7.45637L15.8465 10.5424L13.5205 10.2217L5 12.9811L5.91593 28.9621L32.062 27.1467L32.267 23.7581L26.3917 22.7234C26.3034 22.7086 26.2237 22.6614 26.1681 22.5909C26.1124 22.5205 26.0847 22.4319 26.0904 22.3421L26.4339 17.1926C26.4398 17.1027 26.4789 17.0181 26.5435 16.9555C26.6081 16.8928 26.6936 16.8566 26.7834 16.8538L32.7189 16.6904L32.948 12.8963L25.8373 11.9221L25.8313 8.62425ZM21.2698 21.9912C21.2782 22.2394 21.1908 22.4813 21.0257 22.6663C20.8606 22.8513 20.6306 22.965 20.384 22.9836L13.852 23.631C13.6885 23.6499 13.5228 23.6349 13.3653 23.5871C13.2078 23.5392 13.0617 23.4594 12.936 23.3527C12.8108 23.247 12.7083 23.1169 12.6347 22.9703C12.5612 22.8236 12.5181 22.6634 12.5082 22.4995L12.1225 16.7146C12.1102 16.547 12.1328 16.3787 12.1888 16.2203C12.2448 16.0619 12.3331 15.917 12.4479 15.7948C12.5561 15.6775 12.6863 15.5829 12.8312 15.5164C12.976 15.4499 13.1324 15.413 13.2915 15.4075L20.3779 16.0792C20.6199 16.0946 20.8468 16.2021 21.0125 16.3798C21.1782 16.5574 21.2702 16.7919 21.2698 17.0353V21.9912Z" fill="#EC6736"/>
</g>
<defs>
<clipPath id="clip0_211_5404">
<rect width="28" height="26" fill="white" transform="translate(5 3)"/>
</clipPath>
</defs>
</svg>
