<svg width="247" height="102" viewBox="0 0 247 102" fill="none" xmlns="http://www.w3.org/2000/svg">
<path fill-rule="evenodd" clip-rule="evenodd" d="M67.5433 54.6192H33.9374C31.7701 54.6192 30.0137 52.862 30.0137 50.6946C30.0137 48.5274 31.7701 46.771 33.9374 46.771H67.5433C69.7105 46.771 71.4677 48.5274 71.4677 50.6946C71.4677 52.862 69.7102 54.6192 67.5433 54.6192Z" fill="white"/>
<path fill-rule="evenodd" clip-rule="evenodd" d="M74.1338 41.3536H43.0799C40.9131 41.3536 39.1562 39.5967 39.1562 37.4303C39.1562 35.2631 40.9131 33.5067 43.0799 33.5067L74.1338 33.5063C76.3007 33.5063 78.0583 35.2631 78.0583 37.4303C78.0583 39.5967 76.3007 41.3536 74.1338 41.3536Z" fill="white"/>
<path fill-rule="evenodd" clip-rule="evenodd" d="M43.0851 41.3555C41.7295 41.3555 40.4108 40.6519 39.6838 39.3932L23.9401 12.1264C22.8569 10.2494 23.5003 7.84988 25.3762 6.7654C27.2526 5.68586 29.6529 6.32658 30.737 8.20199L46.4806 35.4688C47.5638 37.3455 46.9204 39.7455 45.0442 40.8295C44.4264 41.1857 43.7513 41.3555 43.0851 41.3555Z" fill="white"/>
<path fill-rule="evenodd" clip-rule="evenodd" d="M58.3963 67.8835H27.3419C25.1747 67.8835 23.418 66.126 23.418 63.9591C23.418 61.7922 25.1747 60.0347 27.3419 60.0347H58.3963C60.5635 60.0347 62.3207 61.7922 62.3207 63.9591C62.3207 66.126 60.5635 67.8835 58.3963 67.8835Z" fill="white"/>
<path fill-rule="evenodd" clip-rule="evenodd" d="M74.1428 95.1484C72.786 95.1484 71.4679 94.4458 70.7408 93.1858L54.9986 65.9195C53.9159 64.0431 54.5581 61.6438 56.4355 60.5591C58.316 59.4753 60.7127 60.1187 61.7954 61.9968L77.5376 89.2627C78.6204 91.1391 77.9781 93.5389 76.1005 94.6229C75.4828 94.9799 74.8081 95.1484 74.1428 95.1484Z" fill="white"/>
<mask id="mask0_113_5687" style="mask-type:alpha" maskUnits="userSpaceOnUse" x="23" y="0" width="79" height="79">
<path d="M23.416 0H101.476V78.0148H23.416V0Z" fill="white"/>
</mask>
<g mask="url(#mask0_113_5687)">
<path fill-rule="evenodd" clip-rule="evenodd" d="M91.2571 78.0148C90.5917 78.0148 89.9174 77.8458 89.2992 77.4888C87.4218 76.4048 86.7799 74.0053 87.8623 72.1291C93.5891 62.2119 95.1096 50.661 92.1451 39.5993C89.1818 28.539 82.0874 19.2942 72.1719 13.5695C58.9484 5.936 42.5226 5.93728 29.3028 13.5695C27.4261 14.6523 25.0271 14.0096 23.9426 12.1333C22.8586 10.2561 23.502 7.85628 25.3784 6.77259C33.1992 2.25774 41.9683 0 50.7372 0C59.5061 0 68.2745 2.25774 76.0952 6.77259C87.8273 13.5465 96.2193 24.4831 99.7261 37.5684C103.232 50.6544 101.433 64.3213 94.6591 76.0522C93.9322 77.312 92.6127 78.0148 91.2571 78.0148Z" fill="white"/>
</g>
<mask id="mask1_113_5687" style="mask-type:alpha" maskUnits="userSpaceOnUse" x="0" y="23" width="79" height="79">
<path d="M0 23.3755H78.0594V101.392H0V23.3755Z" fill="white"/>
</mask>
<g mask="url(#mask1_113_5687)">
<path fill-rule="evenodd" clip-rule="evenodd" d="M50.7395 101.39C41.9698 101.39 33.2017 99.1324 25.3799 94.6161C13.6486 87.8419 5.2564 76.9051 1.7503 63.8198C-1.7566 50.7344 0.043389 37.0672 6.81662 25.3358C7.90205 23.4599 10.3019 22.8163 12.1774 23.9003C14.0538 24.9835 14.6972 27.3831 13.614 29.2597C7.88805 39.1765 6.36666 50.7291 9.33037 61.7894C12.2941 72.8501 19.3877 82.0941 29.3043 87.8188C42.5262 95.4539 58.9501 95.4539 72.1734 87.8201C74.0527 86.7359 76.4504 87.3795 77.5333 89.2572C78.6162 91.1334 77.9742 93.5329 76.0967 94.617C68.2761 99.1308 59.5068 101.39 50.7395 101.39Z" fill="white"/>
</g>
<path fill-rule="evenodd" clip-rule="evenodd" d="M134.782 35.4233H161.607C162.657 35.4233 163.182 36.0438 163.182 37.2849C163.182 38.4946 162.657 39.0987 161.607 39.0987H134.782V44.8549C134.782 47.4772 137.247 48.7884 142.18 48.7884H161.607C162.721 48.7884 163.278 49.3693 163.278 50.5314C163.278 51.7559 162.721 52.3683 161.607 52.3683H142.037C134.145 52.3683 130.199 49.9184 130.199 45.0175V29.409C130.199 24.4135 134.288 21.915 142.466 21.915H147.765C148.815 21.915 149.34 22.5198 149.34 23.7289C149.34 24.9064 148.815 25.495 147.765 25.495H144.185C137.915 25.495 134.782 26.8001 134.782 29.409V35.4233Z" fill="white"/>
<path fill-rule="evenodd" clip-rule="evenodd" d="M204.995 49.5527C204.995 50.5715 204.715 51.3352 204.159 51.8439C203.602 52.3532 202.958 52.6076 202.226 52.6076C201.907 52.6076 201.565 52.5433 201.2 52.4167C200.834 52.2899 200.476 52.0512 200.126 51.7007L173.205 27.6436V50.6506C173.205 51.9557 172.457 52.6076 170.961 52.6076C169.497 52.6076 168.766 51.9557 168.766 50.6506V24.5409C168.766 23.5863 169.052 22.8942 169.625 22.4646C170.198 22.035 170.834 21.8202 171.534 21.8202C171.979 21.8202 172.393 21.8762 172.775 21.9873C173.157 22.0991 173.522 22.3297 173.873 22.6794L200.555 46.2592V23.5386C200.555 22.2975 201.319 21.677 202.847 21.677C204.279 21.677 204.995 22.2975 204.995 23.5386V49.5527Z" fill="white"/>
<path fill-rule="evenodd" clip-rule="evenodd" d="M242.417 29.5126C242.417 26.8343 239.553 25.495 233.825 25.495H223.706C218.105 25.495 215.305 26.8343 215.305 29.5126V44.5789C215.305 47.3854 218.105 48.7882 223.706 48.7882H235.83C240.221 48.7882 242.417 47.4019 242.417 44.6274V29.5126ZM246.999 44.4522C246.999 47.8904 245.167 50.2457 241.503 51.5187L243.801 52.8044C244.055 52.9634 244.27 53.2095 244.446 53.5436C244.62 53.8762 244.708 54.1701 244.708 54.4245C244.708 54.9643 244.501 55.4089 244.088 55.7587C243.674 56.107 243.196 56.2824 242.656 56.2824C242.337 56.2824 241.971 56.1704 241.558 55.9481L235.209 52.2251H222.417C214.62 52.2251 210.723 49.6318 210.723 44.4447V29.5998C210.723 24.4768 214.61 21.915 222.385 21.915H235.098C243.032 21.915 246.999 24.4619 246.999 29.5545V44.4522Z" fill="white"/>
<path fill-rule="evenodd" clip-rule="evenodd" d="M132.082 73.3775H142.902C143.326 73.3775 143.537 73.6278 143.537 74.1285C143.537 74.6164 143.326 74.8599 142.902 74.8599H132.082V77.1817C132.082 78.2394 133.077 78.7681 135.067 78.7681H142.902C143.351 78.7681 143.576 79.0026 143.576 79.4712C143.576 79.9651 143.351 80.212 142.902 80.212H135.009C131.825 80.212 130.234 79.2238 130.234 77.2472V70.9518C130.234 68.937 131.883 67.9292 135.182 67.9292H137.319C137.743 67.9292 137.954 68.1733 137.954 68.6608C137.954 69.1359 137.743 69.3731 137.319 69.3731H135.875C133.347 69.3731 132.082 69.8996 132.082 70.9518V73.3775Z" fill="white"/>
<path fill-rule="evenodd" clip-rule="evenodd" d="M160.403 79.0767C160.403 79.4875 160.291 79.7957 160.066 80.0008C159.842 80.2064 159.582 80.3088 159.287 80.3088C159.158 80.3088 159.02 80.2829 158.873 80.2318C158.725 80.1806 158.581 80.0845 158.439 79.9431L147.581 70.24V79.5195C147.581 80.046 147.28 80.3088 146.676 80.3088C146.086 80.3088 145.791 80.046 145.791 79.5195V68.9886C145.791 68.6036 145.906 68.3245 146.138 68.1511C146.368 67.9778 146.625 67.8913 146.908 67.8913C147.087 67.8913 147.254 67.9138 147.408 67.9586C147.562 68.0037 147.71 68.0967 147.851 68.2378L158.613 77.7483V68.5843C158.613 68.0838 158.921 67.8335 159.537 67.8335C160.115 67.8335 160.403 68.0838 160.403 68.5843V79.0767Z" fill="white"/>
<path fill-rule="evenodd" clip-rule="evenodd" d="M164.561 73.3775H175.381C175.804 73.3775 176.016 73.6278 176.016 74.1285C176.016 74.6164 175.804 74.8599 175.381 74.8599H164.561V77.1817C164.561 78.2394 165.555 78.7681 167.545 78.7681H175.381C175.83 78.7681 176.054 79.0026 176.054 79.4712C176.054 79.9651 175.83 80.212 175.381 80.212H167.487C164.304 80.212 162.713 79.2238 162.713 77.2472V70.9518C162.713 68.937 164.362 67.9292 167.66 67.9292H169.798C170.221 67.9292 170.433 68.1733 170.433 68.6608C170.433 69.1359 170.221 69.3731 169.798 69.3731H168.354C165.825 69.3731 164.561 69.8996 164.561 70.9518V73.3775Z" fill="white"/>
<path fill-rule="evenodd" clip-rule="evenodd" d="M182.982 69.3731C180.928 69.3731 179.902 69.8557 179.902 70.82V77.09C179.902 78.2088 181.031 78.7681 183.29 78.7681H190.028C190.477 78.7681 190.702 79.0025 190.702 79.4712C190.702 79.9651 190.477 80.212 190.028 80.212H183.04C179.741 80.212 178.092 79.1855 178.092 77.1318V70.817C178.092 68.892 179.702 67.9292 182.924 67.9292H190.028C190.477 67.9292 190.702 68.1669 190.702 68.6415C190.702 69.1295 190.477 69.3731 190.028 69.3731H182.982Z" fill="white"/>
<path fill-rule="evenodd" clip-rule="evenodd" d="M207.34 76.8242C207.34 79.0834 205.319 80.2126 201.276 80.2126H198.523C194.71 80.2126 192.805 79.0834 192.805 76.8242V68.5843C192.805 68.0838 193.103 67.8335 193.7 67.8335C194.335 67.8335 194.653 68.0844 194.653 68.5856V76.705C194.653 78.081 195.857 78.7687 198.266 78.7687H201.59C204.217 78.7687 205.53 78.081 205.53 76.705V68.5856C205.53 68.0844 205.832 67.8335 206.435 67.8335C207.038 67.8335 207.34 68.0838 207.34 68.5843V76.8242Z" fill="white"/>
<path fill-rule="evenodd" clip-rule="evenodd" d="M224.184 76.8242C224.184 79.0834 222.162 80.2126 218.119 80.2126H215.366C211.554 80.2126 209.648 79.0834 209.648 76.8242V68.5843C209.648 68.0838 209.946 67.8335 210.543 67.8335C211.179 67.8335 211.496 68.0844 211.496 68.5856V76.705C211.496 78.081 212.701 78.7687 215.11 78.7687H218.434C221.061 78.7687 222.374 78.081 222.374 76.705V68.5856C222.374 68.0844 222.675 67.8335 223.279 67.8335C223.882 67.8335 224.184 68.0838 224.184 68.5843V76.8242Z" fill="white"/>
<path fill-rule="evenodd" clip-rule="evenodd" d="M246.554 79.5193C246.554 80.0457 246.239 80.3086 245.61 80.3086C245.033 80.3086 244.744 80.0457 244.744 79.5193V70.5669L237.871 79.654C237.55 80.0905 237.14 80.3086 236.639 80.3086C236.1 80.3086 235.67 80.0905 235.349 79.654L228.361 70.5861V79.5193C228.361 80.0457 228.065 80.3086 227.475 80.3086C226.872 80.3086 226.57 80.0457 226.57 79.5193V68.8729C226.57 68.1796 226.91 67.8333 227.591 67.8333C228.065 67.8333 228.47 68.045 228.803 68.4686L236.659 78.4989L244.359 68.3721C244.641 68.0132 245.014 67.8333 245.476 67.8333C246.194 67.8333 246.554 68.1927 246.554 68.9114V79.5193Z" fill="white"/>
</svg>
