<svg width="65" height="65" viewBox="0 0 65 65" fill="none" xmlns="http://www.w3.org/2000/svg">
<path fill-rule="evenodd" clip-rule="evenodd" d="M40.7988 31.7438L24.7028 36.9379C23.6647 37.2729 22.5516 36.702 22.2163 35.663C21.8811 34.6241 22.4506 33.5107 23.4887 33.1757L39.5847 27.9816C40.6227 27.6466 41.7361 28.217 42.0713 29.2559C42.4066 30.2949 41.8366 31.4089 40.7988 31.7438Z" fill="#606577"/>
<path fill-rule="evenodd" clip-rule="evenodd" d="M41.9044 24.366L27.0307 29.1656C25.9929 29.5005 24.8796 28.9298 24.5445 27.8913C24.2092 26.8524 24.779 25.7389 25.8168 25.404L40.6905 20.6042C41.7283 20.2693 42.842 20.8397 43.1772 21.8786C43.5123 22.9172 42.9422 24.031 41.9044 24.366Z" fill="#606577"/>
<path fill-rule="evenodd" clip-rule="evenodd" d="M27.0333 29.1657C26.384 29.3752 25.6436 29.2418 25.1007 28.7507L13.342 18.113C12.5329 17.3806 12.4699 16.1309 13.2006 15.3211C13.9323 14.5136 15.1811 14.4497 15.9905 15.1812L27.749 25.8189C28.5582 26.5512 28.6212 27.8011 27.8903 28.6107C27.6495 28.877 27.3524 29.0627 27.0333 29.1657Z" fill="#606577"/>
<path fill-rule="evenodd" clip-rule="evenodd" d="M38.4714 39.5159L23.5975 44.3156C22.5595 44.6506 21.4462 44.0796 21.111 43.0408C20.7758 42.0021 21.3453 40.888 22.3833 40.5531L37.2573 35.7533C38.2953 35.4184 39.4088 35.9893 39.744 37.028C40.0792 38.0668 39.5094 39.1809 38.4714 39.5159Z" fill="#606577"/>
<path fill-rule="evenodd" clip-rule="evenodd" d="M50.2304 50.1526C49.5805 50.3623 48.8405 50.2292 48.2973 49.7376L36.5395 39.0999C35.7307 38.3677 35.6671 37.1183 36.3985 36.3082C37.1316 35.4979 38.379 35.436 39.1881 36.1689L50.9459 46.8065C51.7548 47.5386 51.8184 48.7883 51.0867 49.5981C50.8461 49.8647 50.549 50.0498 50.2304 50.1526Z" fill="#606577"/>
<mask id="mask0_88_7501" style="mask-type:alpha" maskUnits="userSpaceOnUse" x="11" y="0" width="50" height="50">
<path d="M11.2168 12.3806L48.6049 0.315695L60.6731 37.7141L23.2851 49.779L11.2168 12.3806Z" fill="#606577"/>
</mask>
<g mask="url(#mask0_88_7501)">
<path fill-rule="evenodd" clip-rule="evenodd" d="M55.7785 39.2936C55.4598 39.3964 55.1107 39.4197 54.7594 39.344C53.6925 39.1146 53.0139 38.0635 53.2421 36.9968C54.4509 31.3576 53.3923 25.5854 50.2612 20.7409C47.131 15.8968 42.3029 12.5616 36.6682 11.3499C29.1538 9.73433 21.2866 12.2737 16.1354 17.9757C15.4041 18.7848 14.1556 18.8475 13.3459 18.1156C12.5363 17.3833 12.4733 16.1334 13.2044 15.3239C16.2518 11.9508 20.1027 9.5132 24.3027 8.15788C28.5027 6.80256 33.0517 6.52963 37.4959 7.48519C44.1631 8.91911 49.8743 12.8648 53.5781 18.5956C57.2819 24.3268 58.5344 31.1564 57.1044 37.827C56.9511 38.5432 56.4278 39.0841 55.7785 39.2936Z" fill="#606577"/>
</g>
<mask id="mask1_88_7501" style="mask-type:alpha" maskUnits="userSpaceOnUse" x="3" y="15" width="51" height="50">
<path d="M3.61523 27.205L41.0029 15.1402L53.0714 52.5393L15.6837 64.6041L3.61523 27.205Z" fill="#606577"/>
</mask>
<g mask="url(#mask1_88_7501)">
<path fill-rule="evenodd" clip-rule="evenodd" d="M39.9861 56.7618C35.7857 58.1173 31.2369 58.3902 26.7919 57.4341C20.1251 56 14.4137 52.0542 10.7102 46.3233C7.00635 40.5925 5.75427 33.7626 7.18366 27.092C7.41336 26.025 8.46324 25.3455 9.52925 25.5753C10.5955 25.8045 11.2749 26.8553 11.0464 27.9224C9.83788 33.5612 10.8963 39.3345 14.0267 44.1784C17.1572 49.0226 21.9848 52.3576 27.6201 53.5691C35.134 55.1857 43.0005 52.6472 48.1531 46.9439C48.8854 46.1338 50.1334 46.0717 50.9426 46.8044C51.7515 47.5365 51.8151 48.786 51.0836 49.5959C48.036 52.9684 44.1854 55.4067 39.9861 56.7618Z" fill="#606577"/>
</g>
</svg>
