<svg width="138" height="139" viewBox="0 0 138 139" fill="none" xmlns="http://www.w3.org/2000/svg">
<path fill-rule="evenodd" clip-rule="evenodd" d="M87.0757 67.971L52.7231 79.0564C50.5076 79.7714 48.132 78.553 47.4165 76.3355C46.701 74.1183 47.9165 71.7419 50.132 71.027L84.4846 59.9416C86.7 59.2267 89.0761 60.444 89.7916 62.6613C90.5072 64.8787 89.2907 67.2563 87.0757 67.971Z" fill="white"/>
<path fill-rule="evenodd" clip-rule="evenodd" d="M89.4353 52.225L57.6914 62.4686C55.4765 63.1833 53.1006 61.9654 52.3853 59.7489C51.6698 57.5317 52.8859 55.1552 55.1007 54.4404L86.8446 44.1965C89.0596 43.4817 91.4363 44.6992 92.1518 46.9165C92.8671 49.133 91.6504 51.5102 89.4353 52.225Z" fill="white"/>
<path fill-rule="evenodd" clip-rule="evenodd" d="M57.6952 62.4687C56.3095 62.9159 54.7292 62.631 53.5705 61.583L28.4749 38.8797C26.7479 37.3166 26.6134 34.6494 28.173 32.9211C29.7346 31.1977 32.3998 31.0615 34.1272 32.6226L59.2227 55.326C60.9496 56.8887 61.0842 59.5564 59.5242 61.2843C59.0102 61.8526 58.3762 62.2489 57.6952 62.4687Z" fill="white"/>
<path fill-rule="evenodd" clip-rule="evenodd" d="M82.1066 84.5584L50.3621 94.8021C48.1468 95.517 45.7708 94.2984 45.0554 92.0815C44.34 89.8645 45.5555 87.4869 47.7709 86.772L79.5153 76.5283C81.7307 75.8134 84.1071 77.0319 84.8225 79.2488C85.5379 81.4658 84.3219 83.8435 82.1066 84.5584Z" fill="white"/>
<path fill-rule="evenodd" clip-rule="evenodd" d="M107.203 107.26C105.816 107.707 104.236 107.423 103.077 106.374L77.9831 83.6705C76.2569 82.108 76.1211 79.4414 77.6822 77.7124C79.2467 75.9832 81.909 75.8509 83.6359 77.4153L108.73 100.118C110.456 101.681 110.592 104.348 109.03 106.076C108.517 106.645 107.883 107.04 107.203 107.26Z" fill="white"/>
<mask id="mask0_88_4468" style="mask-type:alpha" maskUnits="userSpaceOnUse" x="23" y="0" width="107" height="107">
<path d="M23.9375 26.6455L103.732 0.896186L129.489 80.7131L49.694 106.462L23.9375 26.6455Z" fill="white"/>
</mask>
<g mask="url(#mask0_88_4468)">
<path fill-rule="evenodd" clip-rule="evenodd" d="M119.042 84.084C118.362 84.3035 117.617 84.3531 116.867 84.1917C114.59 83.702 113.142 81.4587 113.629 79.1822C116.209 67.1468 113.95 54.8275 107.267 44.4882C100.587 34.15 90.2825 27.0318 78.2567 24.4456C62.2192 20.9977 45.4288 26.4173 34.435 38.5866C32.8741 40.3134 30.2096 40.4473 28.4816 38.8853C26.7537 37.3224 26.6192 34.6549 28.1794 32.9272C34.6834 25.7283 42.902 20.5258 51.8658 17.6332C60.8295 14.7407 70.5382 14.1582 80.0232 16.1975C94.2524 19.2579 106.442 27.6789 114.346 39.9097C122.251 52.1414 124.924 66.7174 121.872 80.9539C121.545 82.4826 120.428 83.6369 119.042 84.084Z" fill="white"/>
</g>
<mask id="mask1_88_4468" style="mask-type:alpha" maskUnits="userSpaceOnUse" x="7" y="32" width="107" height="107">
<path d="M7.7168 58.2842L87.5107 32.5351L113.268 112.353L33.4737 138.102L7.7168 58.2842Z" fill="white"/>
</mask>
<g mask="url(#mask1_88_4468)">
<path fill-rule="evenodd" clip-rule="evenodd" d="M85.3407 121.365C76.3761 124.258 66.6678 124.841 57.1812 122.8C42.9527 119.739 30.7633 111.318 22.8592 99.0871C14.9542 86.8562 12.282 72.2796 15.3326 58.043C15.8229 55.7657 18.0635 54.3156 20.3387 54.806C22.6143 55.2953 24.0643 57.538 23.5766 59.8153C20.9974 71.8499 23.2563 84.1713 29.9373 94.5094C36.6186 104.848 46.9218 111.966 58.9487 114.551C74.9851 118.001 91.774 112.584 102.771 100.412C104.334 98.6826 106.997 98.5501 108.724 100.114C110.451 101.676 110.587 104.343 109.025 106.071C102.521 113.269 94.3028 118.473 85.3407 121.365Z" fill="white"/>
</g>
</svg>
