<svg width="24" height="23" viewBox="0 0 24 23" fill="none" xmlns="http://www.w3.org/2000/svg">
<path d="M8.18679 18.3576C8.18679 18.4475 8.07995 18.5194 7.94524 18.5194C7.79195 18.5329 7.68511 18.461 7.68511 18.3576C7.68511 18.2677 7.79195 18.1957 7.92666 18.1957C8.06602 18.1822 8.18679 18.2542 8.18679 18.3576ZM6.74215 18.1553C6.70963 18.2452 6.80253 18.3486 6.94189 18.3756C7.06266 18.4205 7.20202 18.3756 7.22989 18.2856C7.25776 18.1957 7.1695 18.0923 7.03015 18.0518C6.90937 18.0204 6.77466 18.0653 6.74215 18.1553ZM8.79531 18.0788C8.6606 18.1103 8.56769 18.1957 8.58163 18.2991C8.59556 18.3891 8.71634 18.4475 8.85569 18.416C8.9904 18.3846 9.08331 18.2991 9.06937 18.2092C9.05544 18.1238 8.93002 18.0653 8.79531 18.0788ZM11.8518 0.849487C5.40898 0.849487 0.480469 5.58396 0.480469 11.8202C0.480469 16.8064 3.72279 21.0733 8.35402 22.575C8.9486 22.6784 9.15763 22.3232 9.15763 22.031C9.15763 21.7522 9.14369 20.2145 9.14369 19.2703C9.14369 19.2703 5.89208 19.9447 5.20924 17.9305C5.20924 17.9305 4.67969 16.6221 3.91789 16.2849C3.91789 16.2849 2.85415 15.579 3.99221 15.5924C3.99221 15.5924 5.14886 15.6824 5.78524 16.7525C6.80253 18.488 8.50731 17.9889 9.17157 17.6922C9.2784 16.9728 9.58034 16.4737 9.91479 16.1769C7.31815 15.8982 4.69828 15.534 4.69828 11.2087C4.69828 9.97222 5.05131 9.35175 5.79453 8.56042C5.67376 8.26817 5.27892 7.0632 5.91531 5.50752C6.88615 5.21527 9.12047 6.72149 9.12047 6.72149C10.0495 6.4697 11.0482 6.33932 12.0376 6.33932C13.027 6.33932 14.0258 6.4697 14.9548 6.72149C14.9548 6.72149 17.1891 5.21078 18.16 5.50752C18.7963 7.0677 18.4015 8.26817 18.2807 8.56042C19.024 9.35625 19.4792 9.97672 19.4792 11.2087C19.4792 15.5475 16.7432 15.8937 14.1465 16.1769C14.5739 16.5321 14.9362 17.2066 14.9362 18.2632C14.9362 19.7784 14.9223 21.6533 14.9223 22.022C14.9223 22.3142 15.136 22.6694 15.7259 22.566C20.371 21.0733 23.5205 16.8064 23.5205 11.8202C23.5205 5.58396 18.2947 0.849487 11.8518 0.849487ZM4.99556 16.3568C4.93518 16.4018 4.94911 16.5052 5.02808 16.5906C5.1024 16.6625 5.20924 16.694 5.26963 16.6356C5.33002 16.5906 5.31608 16.4872 5.23711 16.4018C5.16279 16.3298 5.05595 16.2983 4.99556 16.3568ZM4.49389 15.9926C4.46137 16.051 4.50782 16.123 4.60073 16.168C4.67505 16.2129 4.76795 16.1994 4.80047 16.1365C4.83298 16.078 4.78653 16.0061 4.69363 15.9611C4.60073 15.9341 4.5264 15.9476 4.49389 15.9926ZM5.99892 17.5932C5.9246 17.6517 5.95247 17.7866 6.05931 17.872C6.16615 17.9754 6.30086 17.9889 6.36124 17.917C6.42163 17.8585 6.39376 17.7236 6.30086 17.6382C6.19866 17.5348 6.05931 17.5213 5.99892 17.5932ZM5.46937 16.9323C5.39505 16.9773 5.39505 17.0942 5.46937 17.1976C5.54369 17.301 5.66911 17.3459 5.7295 17.301C5.80382 17.2425 5.80382 17.1256 5.7295 17.0222C5.66447 16.9188 5.54369 16.8738 5.46937 16.9323Z" fill="#00A7D2"/>
</svg>
