<svg width="48" height="45" viewBox="0 0 48 45" fill="none" xmlns="http://www.w3.org/2000/svg">
<path d="M16.3736 35.7152C16.3736 35.895 16.1599 36.0389 15.8905 36.0389C15.5839 36.0659 15.3702 35.922 15.3702 35.7152C15.3702 35.5353 15.5839 35.3914 15.8533 35.3914C16.132 35.3645 16.3736 35.5084 16.3736 35.7152ZM13.4843 35.3105C13.4193 35.4904 13.6051 35.6972 13.8838 35.7511C14.1253 35.8411 14.404 35.7511 14.4598 35.5713C14.5155 35.3914 14.339 35.1846 14.0603 35.1037C13.8187 35.0407 13.5493 35.1307 13.4843 35.3105ZM17.5906 35.1576C17.3212 35.2206 17.1354 35.3914 17.1633 35.5983C17.1911 35.7781 17.4327 35.895 17.7114 35.8321C17.9808 35.7691 18.1666 35.5983 18.1387 35.4184C18.1109 35.2476 17.86 35.1307 17.5906 35.1576ZM23.7036 0.698975C10.818 0.698975 0.960938 10.1679 0.960938 22.6403C0.960938 32.6128 7.44558 41.1466 16.708 44.15C17.8972 44.3568 18.3153 43.6464 18.3153 43.0619C18.3153 42.5044 18.2874 39.429 18.2874 37.5406C18.2874 37.5406 11.7842 38.8895 10.4185 34.8609C10.4185 34.8609 9.35939 32.2441 7.83578 31.5697C7.83578 31.5697 5.70829 30.1579 7.98442 30.1849C7.98442 30.1849 10.2977 30.3647 11.5705 32.5049C13.6051 35.976 17.0146 34.9778 18.3431 34.3843C18.5568 32.9455 19.1607 31.9474 19.8296 31.3539C14.6363 30.7964 9.39655 30.068 9.39655 21.4173C9.39655 18.9444 10.1026 17.7035 11.5891 16.1208C11.3475 15.5363 10.5578 13.1264 11.8306 10.015C13.7723 9.43054 18.2409 12.443 18.2409 12.443C20.099 11.9394 22.0964 11.6786 24.0753 11.6786C26.0541 11.6786 28.0515 11.9394 29.9096 12.443C29.9096 12.443 34.3782 9.42155 36.3199 10.015C37.5927 13.1354 36.803 15.5363 36.5615 16.1208C38.0479 17.7125 38.9584 18.9534 38.9584 21.4173C38.9584 30.095 33.4864 30.7874 28.2931 31.3539C29.1478 32.0643 29.8724 33.4131 29.8724 35.5263C29.8724 38.5568 29.8445 42.3066 29.8445 43.0439C29.8445 43.6284 30.2719 44.3388 31.4518 44.132C40.7421 41.1466 47.0409 32.6128 47.0409 22.6403C47.0409 10.1679 36.5893 0.698975 23.7036 0.698975ZM9.99113 31.7136C9.87036 31.8035 9.89823 32.0103 10.0562 32.1812C10.2048 32.3251 10.4185 32.388 10.5393 32.2711C10.66 32.1812 10.6322 31.9744 10.4742 31.8035C10.3256 31.6596 10.1119 31.5967 9.99113 31.7136ZM8.98778 30.9852C8.92274 31.1021 9.01565 31.246 9.20145 31.3359C9.3501 31.4258 9.5359 31.3988 9.60094 31.273C9.66597 31.1561 9.57307 31.0122 9.38726 30.9223C9.20145 30.8683 9.05281 30.8953 8.98778 30.9852ZM11.9978 34.1865C11.8492 34.3034 11.9049 34.5731 12.1186 34.744C12.3323 34.9508 12.6017 34.9778 12.7225 34.8339C12.8433 34.717 12.7875 34.4473 12.6017 34.2764C12.3973 34.0696 12.1186 34.0426 11.9978 34.1865ZM10.9387 32.8646C10.7901 32.9545 10.7901 33.1883 10.9387 33.3951C11.0874 33.602 11.3382 33.6919 11.459 33.602C11.6076 33.4851 11.6076 33.2513 11.459 33.0444C11.3289 32.8376 11.0874 32.7477 10.9387 32.8646Z" fill="#101425"/>
</svg>
