<svg width="166" height="68" viewBox="0 0 166 68" fill="none" xmlns="http://www.w3.org/2000/svg">
<path fill-rule="evenodd" clip-rule="evenodd" d="M45.299 36.6312H22.7605C21.3069 36.6312 20.1289 35.4527 20.1289 33.9991C20.1289 32.5456 21.3069 31.3677 22.7605 31.3677H45.299C46.7525 31.3677 47.931 32.5456 47.931 33.9991C47.931 35.4527 46.7523 36.6312 45.299 36.6312Z" fill="#00A7D2"/>
<path fill-rule="evenodd" clip-rule="evenodd" d="M49.7202 27.7348H28.8932C27.44 27.7348 26.2617 26.5565 26.2617 25.1036C26.2617 23.6501 27.44 22.4721 28.8932 22.4721L49.7202 22.4719C51.1735 22.4719 52.3523 23.6501 52.3523 25.1036C52.3523 26.5565 51.1735 27.7348 49.7202 27.7348Z" fill="#00A7D2"/>
<path fill-rule="evenodd" clip-rule="evenodd" d="M28.896 27.7357C27.9868 27.7357 27.1024 27.2639 26.6148 26.4197L16.0559 8.13258C15.3295 6.87373 15.761 5.26444 17.0191 4.53711C18.2775 3.81309 19.8873 4.2428 20.6144 5.50059L31.1732 23.7877C31.8997 25.0463 31.4682 26.656 30.2099 27.383C29.7955 27.6219 29.3427 27.7357 28.896 27.7357Z" fill="#00A7D2"/>
<path fill-rule="evenodd" clip-rule="evenodd" d="M39.166 45.5274H18.3387C16.8852 45.5274 15.707 44.3487 15.707 42.8954C15.707 41.4421 16.8852 40.2634 18.3387 40.2634H39.166C40.6195 40.2634 41.798 41.4421 41.798 42.8954C41.798 44.3487 40.6195 45.5274 39.166 45.5274Z" fill="#101425"/>
<path fill-rule="evenodd" clip-rule="evenodd" d="M49.7235 63.8138C48.8135 63.8138 47.9295 63.3426 47.4418 62.4976L36.884 44.2108C36.1579 42.9524 36.5885 41.3432 37.8477 40.6157C39.1089 39.8888 40.7163 40.3204 41.4424 41.58L52.0003 59.8664C52.7265 61.1249 52.2957 62.7344 51.0365 63.4614C50.6222 63.7008 50.1697 63.8138 49.7235 63.8138Z" fill="#101425"/>
<mask id="mask0_163_6072" style="mask-type:alpha" maskUnits="userSpaceOnUse" x="15" y="0" width="54" height="53">
<path d="M15.7051 0H68.058V52.3224H15.7051V0Z" fill="white"/>
</mask>
<g mask="url(#mask0_163_6072)">
<path fill-rule="evenodd" clip-rule="evenodd" d="M61.2042 52.3224C60.758 52.3224 60.3057 52.2091 59.8912 51.9696C58.632 51.2426 58.2015 49.6333 58.9275 48.375C62.7683 41.7238 63.788 33.9769 61.7998 26.5582C59.8124 19.1404 55.0544 12.9401 48.4043 9.10071C39.5357 3.98112 28.5193 3.98197 19.6532 9.10071C18.3945 9.82687 16.7856 9.39587 16.0582 8.13745C15.3312 6.87849 15.7628 5.26899 17.0212 4.54219C22.2664 1.51421 28.1476 0 34.0286 0C39.9097 0 45.7905 1.51421 51.0356 4.54219C58.904 9.08524 64.5323 16.4201 66.8842 25.1961C69.2358 33.9725 68.0293 43.1386 63.4859 51.0061C62.9983 51.8511 62.1134 52.3224 61.2042 52.3224Z" fill="#00A7D2"/>
</g>
<mask id="mask1_163_6072" style="mask-type:alpha" maskUnits="userSpaceOnUse" x="0" y="15" width="53" height="53">
<path d="M0 15.6768H52.3523V68.0001H0V15.6768Z" fill="white"/>
</mask>
<g mask="url(#mask1_163_6072)">
<path fill-rule="evenodd" clip-rule="evenodd" d="M34.0296 67.9998C28.148 67.9998 22.2675 66.4857 17.0216 63.4568C9.15372 58.9135 3.52533 51.5785 1.17388 42.8025C-1.1781 34.0265 0.0290998 24.8603 4.57172 16.9924C5.29969 15.7343 6.90919 15.3027 8.16708 16.0297C9.4255 16.7561 9.85704 18.3654 9.13056 19.6241C5.2903 26.2749 4.26995 34.023 6.25762 41.4408C8.2453 48.8589 13.0028 55.0586 19.6536 58.898C28.5212 64.0187 39.5362 64.0187 48.4048 58.8989C49.6651 58.1718 51.2732 58.6034 51.9995 59.8627C52.7257 61.121 52.2952 62.7303 51.036 63.4574C45.7909 66.4847 39.9096 67.9998 34.0296 67.9998Z" fill="#101425"/>
</g>
<path fill-rule="evenodd" clip-rule="evenodd" d="M90.3935 23.7574H108.385C109.089 23.7574 109.441 24.1736 109.441 25.0059C109.441 25.8172 109.089 26.2224 108.385 26.2224H90.3935V30.0829C90.3935 31.8416 92.0472 32.721 95.3555 32.721H108.385C109.132 32.721 109.505 33.1106 109.505 33.89C109.505 34.7112 109.132 35.1219 108.385 35.1219H95.2596C89.9664 35.1219 87.3203 33.4788 87.3203 30.192V19.7238C87.3203 16.3734 90.0624 14.6978 95.5476 14.6978H99.1011C99.8053 14.6978 100.157 15.1034 100.157 15.9142C100.157 16.704 99.8053 17.0987 99.1011 17.0987H96.7002C92.4954 17.0987 90.3935 17.9741 90.3935 19.7238V23.7574Z" fill="#00A7D2"/>
<path fill-rule="evenodd" clip-rule="evenodd" d="M137.483 33.2333C137.483 33.9166 137.296 34.4288 136.923 34.7699C136.549 35.1115 136.117 35.2822 135.627 35.2822C135.413 35.2822 135.183 35.239 134.938 35.1541C134.693 35.0691 134.453 34.909 134.218 34.6739L116.163 18.5394V33.9696C116.163 34.845 115.661 35.2822 114.658 35.2822C113.676 35.2822 113.186 34.845 113.186 33.9696V16.4586C113.186 15.8184 113.378 15.3542 113.762 15.0661C114.146 14.7779 114.573 14.6339 115.042 14.6339C115.341 14.6339 115.619 14.6714 115.875 14.7459C116.131 14.8209 116.376 14.9756 116.611 15.2101L134.506 31.0244V15.7863C134.506 14.954 135.018 14.5378 136.043 14.5378C137.003 14.5378 137.483 14.954 137.483 15.7863V33.2333Z" fill="#00A7D2"/>
<path fill-rule="evenodd" clip-rule="evenodd" d="M162.583 19.7932C162.583 17.997 160.662 17.0987 156.82 17.0987H150.034C146.277 17.0987 144.399 17.997 144.399 19.7932V29.8978C144.399 31.78 146.277 32.7209 150.034 32.7209H158.165C161.11 32.7209 162.583 31.7911 162.583 29.9303V19.7932ZM165.656 29.8128C165.656 32.1187 164.427 33.6983 161.969 34.5521L163.511 35.4144C163.682 35.521 163.826 35.6861 163.943 35.9102C164.06 36.1332 164.119 36.3303 164.119 36.5009C164.119 36.863 163.98 37.1612 163.703 37.3958C163.425 37.6294 163.105 37.747 162.743 37.747C162.529 37.747 162.283 37.6719 162.006 37.5228L157.749 35.0259H149.169C143.94 35.0259 141.326 33.2866 141.326 29.8078V19.8517C141.326 16.4159 143.933 14.6978 149.148 14.6978H157.674C162.995 14.6978 165.656 16.4059 165.656 19.8213V29.8128Z" fill="#00A7D2"/>
<path fill-rule="evenodd" clip-rule="evenodd" d="M88.5851 49.2122H95.8416C96.1256 49.2122 96.2676 49.38 96.2676 49.7158C96.2676 50.043 96.1256 50.2064 95.8416 50.2064H88.5851V51.7635C88.5851 52.4729 89.2521 52.8275 90.5866 52.8275H95.8416C96.1427 52.8275 96.2934 52.9848 96.2934 53.299C96.2934 53.6302 96.1427 53.7959 95.8416 53.7959H90.5478C88.4128 53.7959 87.3457 53.1331 87.3457 51.8074V47.5853C87.3457 46.234 88.4515 45.5581 90.6638 45.5581H92.0972C92.3812 45.5581 92.5231 45.7218 92.5231 46.0488C92.5231 46.3674 92.3812 46.5265 92.0972 46.5265H91.1289C89.4329 46.5265 88.5851 46.8796 88.5851 47.5853V49.2122Z" fill="#101425"/>
<path fill-rule="evenodd" clip-rule="evenodd" d="M107.577 53.0344C107.577 53.3099 107.502 53.5166 107.351 53.6542C107.201 53.7921 107.026 53.8608 106.828 53.8608C106.742 53.8608 106.65 53.8434 106.551 53.8091C106.452 53.7748 106.355 53.7103 106.26 53.6154L98.978 47.1079V53.3314C98.978 53.6845 98.7757 53.8608 98.3712 53.8608C97.9752 53.8608 97.7773 53.6845 97.7773 53.3314V46.2686C97.7773 46.0104 97.8547 45.8232 98.0098 45.7069C98.1646 45.5907 98.3367 45.5326 98.5262 45.5326C98.6467 45.5326 98.7585 45.5478 98.8619 45.5778C98.9651 45.6081 99.0642 45.6704 99.1589 45.765L106.377 52.1435V45.9975C106.377 45.6617 106.583 45.4939 106.996 45.4939C107.384 45.4939 107.577 45.6617 107.577 45.9975V53.0344Z" fill="#101425"/>
<path fill-rule="evenodd" clip-rule="evenodd" d="M110.366 49.2122H117.623C117.907 49.2122 118.049 49.38 118.049 49.7158C118.049 50.043 117.907 50.2064 117.623 50.2064H110.366V51.7635C110.366 52.4729 111.033 52.8275 112.368 52.8275H117.623C117.924 52.8275 118.075 52.9848 118.075 53.299C118.075 53.6302 117.924 53.7959 117.623 53.7959H112.329C110.194 53.7959 109.127 53.1331 109.127 51.8074V47.5853C109.127 46.234 110.233 45.5581 112.445 45.5581H113.878C114.162 45.5581 114.304 45.7218 114.304 46.0488C114.304 46.3674 114.162 46.5265 113.878 46.5265H112.91C111.214 46.5265 110.366 46.8796 110.366 47.5853V49.2122Z" fill="#101425"/>
<path fill-rule="evenodd" clip-rule="evenodd" d="M122.723 46.5265C121.346 46.5265 120.657 46.8501 120.657 47.4969V51.702C120.657 52.4524 121.414 52.8275 122.93 52.8275H127.449C127.75 52.8275 127.901 52.9847 127.901 53.299C127.901 53.6302 127.75 53.7959 127.449 53.7959H122.762C120.549 53.7959 119.443 53.1074 119.443 51.7301V47.4949C119.443 46.2038 120.524 45.5581 122.684 45.5581H127.449C127.75 45.5581 127.901 45.7175 127.901 46.0358C127.901 46.3631 127.75 46.5265 127.449 46.5265H122.723Z" fill="#101425"/>
<path fill-rule="evenodd" clip-rule="evenodd" d="M139.057 51.5237C139.057 53.0389 137.701 53.7962 134.99 53.7962H133.143C130.587 53.7962 129.309 53.0389 129.309 51.5237V45.9975C129.309 45.6618 129.508 45.4939 129.909 45.4939C130.335 45.4939 130.548 45.6622 130.548 45.9983V51.4438C130.548 52.3666 131.356 52.8278 132.971 52.8278H135.201C136.962 52.8278 137.843 52.3666 137.843 51.4438V45.9983C137.843 45.6622 138.045 45.4939 138.45 45.4939C138.855 45.4939 139.057 45.6618 139.057 45.9975V51.5237Z" fill="#101425"/>
<path fill-rule="evenodd" clip-rule="evenodd" d="M150.356 51.5237C150.356 53.0389 149 53.7962 146.289 53.7962H144.442C141.886 53.7962 140.607 53.0389 140.607 51.5237V45.9975C140.607 45.6618 140.807 45.4939 141.208 45.4939C141.634 45.4939 141.847 45.6622 141.847 45.9983V51.4438C141.847 52.3666 142.654 52.8278 144.27 52.8278H146.5C148.261 52.8278 149.142 52.3666 149.142 51.4438V45.9983C149.142 45.6622 149.344 45.4939 149.749 45.4939C150.154 45.4939 150.356 45.6618 150.356 45.9975V51.5237Z" fill="#101425"/>
<path fill-rule="evenodd" clip-rule="evenodd" d="M165.356 53.3314C165.356 53.6845 165.144 53.8608 164.723 53.8608C164.336 53.8608 164.142 53.6845 164.142 53.3314V47.3273L159.532 53.4218C159.317 53.7145 159.042 53.8608 158.706 53.8608C158.344 53.8608 158.056 53.7145 157.841 53.4218L153.154 47.3402V53.3314C153.154 53.6845 152.956 53.8608 152.56 53.8608C152.155 53.8608 151.953 53.6845 151.953 53.3314V46.1911C151.953 45.7262 152.181 45.4939 152.637 45.4939C152.956 45.4939 153.227 45.6359 153.451 45.92L158.719 52.6471L163.884 45.8553C164.073 45.6146 164.323 45.4939 164.633 45.4939C165.114 45.4939 165.356 45.735 165.356 46.217V53.3314Z" fill="#101425"/>
</svg>
