<svg width="379" height="373" viewBox="0 0 379 373" fill="none" xmlns="http://www.w3.org/2000/svg">
<g style="mix-blend-mode:screen">
<path d="M101.136 24.3806H100.884L99.778 24.8855L98.6406 25.8322C98.6406 25.8322 98.6406 25.8322 98.6406 25.99C98.6406 26.1478 99.1461 26.1794 100.663 25.138C101.389 24.7908 101.294 24.4121 101.136 24.3806Z" fill="#DAF3FE"/>
</g>
<g style="mix-blend-mode:screen">
<path d="M98.7026 23.4335L97.7864 23.8438C97.7864 23.8438 97.5652 24.0331 97.5968 24.0647C97.6284 24.0962 97.8812 24.0647 98.1339 23.8753C98.337 23.7463 98.5274 23.5983 98.7026 23.4335Z" fill="#DAF3FE"/>
</g>
<g style="mix-blend-mode:screen">
<path d="M103.128 21.4453C103.435 21.3947 103.733 21.2989 104.013 21.1612L105.056 20.6561C105.352 20.5214 105.638 20.363 105.909 20.1825H105.751C103.991 20.8512 102.271 21.6207 100.6 22.487L101.959 21.9504C102.334 21.75 102.725 21.581 103.128 21.4453Z" fill="#DAF3FE"/>
</g>
<g style="mix-blend-mode:screen">
<path d="M100.283 23.0869C100.624 22.8841 100.984 22.7149 101.358 22.5819C101.729 22.4551 102.089 22.2967 102.432 22.1083C102.432 22.1083 102.432 22.1083 102.59 22.1083H102.369C100.365 22.7367 98.4758 23.6856 96.7754 24.9179C97.9837 24.4336 99.1561 23.8639 100.283 23.2132C100.283 23.2132 100.283 23.1185 100.283 23.0869Z" fill="#DAF3FE"/>
</g>
<g style="mix-blend-mode:screen">
<path d="M103.253 22.8013L103.538 22.5172L104.075 22.0439C103.466 22.3013 102.901 22.6527 102.4 23.0853C102.4 23.0853 102.4 23.0853 102.4 23.5271L103.253 22.8013Z" fill="#DAF3FE"/>
</g>
<g style="mix-blend-mode:screen">
<path d="M95.9208 28.1698H95.7313L95.2258 28.3592C94.6636 28.6325 94.1426 28.983 93.6777 29.4006C94.3814 29.1918 95.0517 28.8836 95.6681 28.4854C95.8577 28.3908 96.0472 28.2014 95.9208 28.1698Z" fill="#DAF3FE"/>
</g>
<g style="mix-blend-mode:screen">
<path d="M97.1225 31.1054C97.1225 31.1054 96.9644 31.1054 96.5852 31.1054H96.4904L94.5942 31.5158C93.274 31.9064 92.033 32.5262 90.9281 33.3468C91.1494 33.3468 91.3706 33.3468 91.5602 33.3468C91.7498 33.3468 91.7814 33.694 91.7182 33.8203C91.0115 34.4216 90.2615 34.9703 89.4744 35.4618C89.4248 35.4845 89.3709 35.4963 89.3163 35.4963C89.2618 35.4963 89.2079 35.4845 89.1583 35.4618C89.1583 34.9883 89.6324 34.8305 89.6324 34.3885C88.8521 34.6616 88.148 35.116 87.5781 35.7144C87.5781 36.0617 87.8626 36.4089 87.9574 36.7877C88.0522 37.1665 87.9574 37.0403 87.9574 37.1981C87.9574 37.356 87.7994 37.7348 87.9574 38.0189C88.4314 38.524 92.6979 36.0301 93.8673 34.862C94.1201 34.6095 94.847 33.1258 94.3729 33.1573C93.8535 33.2204 93.344 33.3477 92.856 33.5362C93.8357 32.8732 94.9734 32.3997 96.0163 31.7368C95.9531 32.3366 97.1225 31.2632 97.1225 31.1054Z" fill="#DAF3FE"/>
</g>
<g style="mix-blend-mode:screen">
<path d="M85.0194 31.1051C86.8841 30.2843 88.4327 28.9584 90.2657 27.9482C89.5969 28.3279 88.953 28.7497 88.3378 29.211L94.6586 25.6753C94.8524 25.5729 95.0242 25.4334 95.1643 25.2649C95.083 25.2332 94.9927 25.2332 94.9114 25.2649C90.784 27.3047 86.7841 29.5924 82.9336 32.1153C83.8817 32.1153 84.4506 31.2314 85.2407 30.8525L85.0194 31.1051Z" fill="#DAF3FE"/>
</g>
<g style="mix-blend-mode:screen">
<path d="M85.0484 44.079C84.8965 44.1207 84.7561 44.1963 84.6376 44.3C83.8159 44.9314 83.2154 45.7837 82.3621 46.3204C80.8768 47.2043 80.4343 47.4884 80.3711 47.7094C80.5695 47.747 80.7732 47.747 80.9716 47.7094C81.5088 47.7094 81.572 47.7094 81.6985 47.7094C81.8249 47.7094 81.6984 48.1514 82.0777 48.2461C82.3717 48.2797 82.6686 48.2797 82.9626 48.2461C84.2706 48.0814 85.5071 47.5568 86.5338 46.7308C86.8183 46.3835 86.123 45.0892 86.123 45.0892C85.8932 44.638 85.5133 44.2808 85.0484 44.079Z" fill="#DAF3FE"/>
</g>
<g style="mix-blend-mode:screen">
<path d="M88.5585 33.4726H88.1476C87.2524 33.6933 86.4335 34.1514 85.7773 34.7985C85.7773 34.7985 86.0302 34.7985 86.1566 34.7985C86.283 34.7985 86.1566 34.7985 86.1566 35.1773C86.1566 35.5561 85.8722 35.7771 86.1566 35.7139C86.8516 35.289 87.5074 34.803 88.116 34.2618C88.6849 33.7567 88.8429 33.5041 88.5585 33.4726Z" fill="#DAF3FE"/>
</g>
<g style="mix-blend-mode:screen">
<path d="M148.605 9.00696C147.297 10.069 145.743 10.7855 144.086 11.0905C141.787 11.6991 139.529 12.4476 137.322 13.3319C135.584 15.6995 140.009 16.4887 140.072 16.4887C151.07 15.6679 151.228 15.7942 151.986 16.4887C151.986 16.4887 157.169 22.2342 155.526 25.3279C154.831 26.5906 154.831 26.6222 154.862 26.8116C154.894 27.001 155.811 27.5061 156.032 28.0744C156.253 28.6426 156.032 29.9053 156.506 30.7577C157.96 30.4104 159.129 28.8951 160.867 29.6844C161.245 29.7777 161.596 29.9581 161.892 30.2112C162.188 30.4644 162.421 30.7832 162.571 31.1421C162.722 31.5011 162.786 31.8902 162.759 32.2784C162.732 32.6667 162.614 33.0432 162.416 33.3779C161.215 34.83 159.003 34.7669 157.896 36.3769C157.1 37.8424 156.843 39.5401 157.169 41.1753C157.391 41.8382 165.987 56.3913 170.127 57.7804C168.041 27.5061 166.524 13.7422 164.438 7.27069C166.303 13.0162 167.852 24.3177 170.127 57.7804C180.43 59.7692 180.651 59.5166 181.315 58.7905C182.644 55.3151 183.639 51.7211 184.286 48.0572C184.538 46.6682 183.811 45.2161 184.602 43.8586C185.012 43.1641 185.076 43.1325 187.762 42.3749C195.916 39.9126 195.916 39.9126 196.105 38.3657C196.295 36.8188 196.453 35.9034 197.907 35.2088C201.446 33.4094 205.523 33.1569 209.063 31.3259C210.573 30.6953 212.04 29.9677 213.456 29.1477C213.456 29.1477 214.151 28.6426 213.456 27.5693C212.761 26.4959 210.295 25.1385 209.253 23.5285C208.629 22.4369 208.121 21.2838 207.736 20.0875C207.135 18.7932 207.388 18.446 208.115 17.6883C208.842 16.9307 208.431 16.2677 206.345 15.0681C199.613 11.0905 199.55 10.9958 198.981 10.0803C198.975 9.98571 198.975 9.89076 198.981 9.79618H199.329C197.338 7.8705 193.356 9.41736 192.376 5.75541L191.934 5.28188C191.92 5.10326 191.92 4.92383 191.934 4.74521H192.186C191.302 4.74521 188.742 4.4611 188.742 4.4611C187.301 4.43933 185.862 4.55562 184.444 4.80835C182.958 5.09247 181.726 4.11384 180.303 4.0507C178.312 4.0507 173.983 4.0507 172.15 4.0507C168.989 4.0507 168.989 4.0507 168.578 4.4611C166.87 4.44105 165.165 4.59976 163.49 4.93462C164.384 4.94364 165.274 5.04949 166.145 5.25031H163.68C162.88 5.20604 162.078 5.20604 161.278 5.25031C156.404 5.82537 151.637 7.09026 147.119 9.00696C147.404 9.00696 147.404 9.00696 148.605 9.00696Z" fill="#DAF3FE"/>
</g>
<g style="mix-blend-mode:screen">
<path d="M117.476 43.7321C117.918 42.6272 117.729 42.1221 116.939 42.2484C116.939 42.2484 114.568 42.8798 114.126 43.9215C113.683 44.9633 114.884 46.0682 115.264 46.3208C116.085 46.889 117.476 43.7321 117.476 43.7321Z" fill="#DAF3FE"/>
</g>
<g style="mix-blend-mode:screen">
<path d="M134.194 10.6171L132.614 11.2169C134.289 10.8381 139.725 9.32281 140.61 9.10183C137.503 10.2085 134.338 11.1464 131.129 11.9114C130.688 11.9799 130.273 12.1652 129.928 12.4481C129.824 13.093 129.539 13.6952 129.106 14.1844C127.494 13.6793 123.259 16.1101 123.101 16.2679C123.481 16.2679 123.892 16.2679 124.271 16.5836C124.257 16.646 124.257 16.7106 124.271 16.773C125.156 16.6423 126.017 16.3872 126.831 16.0153C123.67 17.6885 123.354 17.2781 123.101 17.0255C120.763 17.0255 120.636 17.9726 120.573 18.4146C119.214 19.2985 117.413 19.3932 116.307 20.5612V20.7191C117.375 20.7175 118.439 20.5688 119.467 20.2771C121.3 19.8983 122.88 18.6355 124.871 19.0775C124.871 19.4247 124.871 19.4247 124.334 19.7404C125.661 19.993 129.896 17.941 129.517 16.8993H129.011C130.15 15.941 131.416 15.1442 132.772 14.5316C136.565 13.6161 137.892 12.1956 137.924 11.8799H137.734C139.931 11.5113 142.061 10.8198 144.055 9.82791C143.764 9.76161 143.461 9.76161 143.17 9.82791C143.17 9.82791 151.102 7.334 151.513 7.23929C149.459 7.52341 149.333 7.52341 148.574 7.58654C150.534 7.08145 152.556 6.76576 154.516 6.26067C152.619 6.26067 149.427 6.67106 149.427 6.67106C149.427 6.67106 141.716 7.99694 139.946 8.62831C140.023 8.73649 140.134 8.81464 140.262 8.84929C139.806 8.9669 139.328 8.9669 138.872 8.84929C136.177 9.23101 133.556 10.0186 131.097 11.1854C131.255 11.3432 131.35 11.3748 134.194 10.6171Z" fill="#DAF3FE"/>
</g>
<g style="mix-blend-mode:screen">
<path d="M103.445 23.8125C103.331 24.047 103.193 24.2692 103.034 24.4754C102.715 24.824 102.354 25.1315 101.959 25.3909C101.959 25.2015 102.149 24.9174 102.244 24.728C102.262 24.6236 102.262 24.5167 102.244 24.4123C101.967 24.4326 101.697 24.5105 101.453 24.641C101.208 24.7714 100.993 24.9516 100.822 25.17H101.043C100.177 25.673 99.2676 26.0957 98.3249 26.4327C98.3249 26.4327 98.6094 26.4327 98.7358 26.4327V26.6852C98.8938 26.6852 98.8938 26.6852 101.422 25.896C100.632 26.3696 98.4829 27.5376 98.2617 28.0427C98.2617 28.0427 101.138 27.0009 101.422 26.8115C102.08 26.3418 102.704 25.8248 103.287 25.2647C103.305 25.3479 103.305 25.434 103.287 25.5172C104.142 24.704 105.039 23.9348 105.973 23.2127C106.384 22.8655 106.415 22.8339 106.479 22.7392H106.194C106.194 22.7392 103.666 23.4653 103.413 23.6231L103.445 23.8125Z" fill="#DAF3FE"/>
</g>
<g style="mix-blend-mode:screen">
<path d="M131.191 43.985C132.361 43.985 134.952 47.1419 134.984 47.1419C135.584 47.9311 136.248 48.7519 136.817 48.6572C138.46 48.3415 140.862 42.154 140.894 42.0909C140.942 41.8725 140.942 41.6463 140.894 41.428L129.042 38.7446C130.12 38.0077 131.288 37.4135 132.519 36.9768C133.783 36.4401 134.415 36.156 134.383 35.8403C132.841 33.5378 130.638 31.755 128.063 30.7262C127.146 30.5684 126.198 30.7262 125.345 30.4105C124.491 30.0949 124.523 28.4533 123.259 28.3586C121.357 28.5885 119.502 29.1102 117.76 29.9054C115.927 30.5999 115.895 30.5999 115.611 30.5684C115.312 29.5444 115.194 28.476 115.263 27.4115C113.996 27.2623 112.712 27.3371 111.471 27.6325C107.899 28.4849 97.2489 37.3872 99.24 38.7446C101.231 40.1021 108.057 38.7446 108.974 38.2711C108.974 37.7029 108.753 37.324 111.723 36.9768C114.694 36.6295 114.631 36.0929 114.884 35.6825C115.67 36.2211 116.42 36.8117 117.128 37.4503C118.013 38.3658 118.36 39.6286 119.182 40.6072C120.004 41.5858 122.564 41.6805 122.564 43.764C122.564 43.764 122.058 48.8466 115.042 50.9617C112.887 51.2586 110.769 51.777 108.721 52.5085C108.381 52.7434 108.13 53.0866 108.009 53.4821C107.889 53.8776 107.906 54.3021 108.057 54.6867C108.437 55.034 109.669 55.1918 113.367 53.9291C116.18 52.982 116.18 52.982 121.205 55.1918C120.794 55.6022 120.794 55.6022 118.771 56.3599C119.877 57.3385 128.442 59.1379 130.212 58.1593C130.212 57.9067 130.212 57.9067 129.674 57.6858C128.267 56.5428 126.927 55.3201 125.661 54.0238C127.669 54.049 129.621 54.6879 131.255 55.8548C131.571 56.0758 131.823 56.2652 131.981 56.202C132.93 55.9179 134.541 52.3191 133.751 51.5299C132.108 49.7936 129.011 50.0146 128.063 47.3313C127.115 44.6479 131.128 43.985 131.191 43.985Z" fill="#DAF3FE"/>
</g>
<g style="mix-blend-mode:screen">
<path d="M92.4141 27.1271C92.884 27.0225 93.3258 26.818 93.7094 26.5275L94.0569 26.3066C93.4754 26.5063 92.9229 26.7822 92.4141 27.1271Z" fill="#DAF3FE"/>
</g>
<g style="mix-blend-mode:screen">
<path d="M158.055 33.7879L159.856 33.4091C160.114 33.3069 160.326 33.1168 160.457 32.8725C160.498 32.8005 160.52 32.7188 160.52 32.6357C160.52 32.5526 160.498 32.4709 160.457 32.3989C160.457 32.1148 159.983 32.0517 159.793 31.7991C159.747 31.677 159.747 31.5424 159.793 31.4203C159.504 31.3325 159.196 31.3325 158.908 31.4203C158.086 31.6097 155.748 32.9356 157.043 33.7248C157.369 33.8341 157.718 33.8558 158.055 33.7879Z" fill="#DAF3FE"/>
</g>
<g style="mix-blend-mode:screen">
<path d="M122.405 27.5372C120.982 26.8513 119.391 26.5884 117.823 26.7795C116.179 27.0636 116.717 28.1685 117.096 28.4842C118.487 29.4628 122.405 27.5687 122.405 27.5372Z" fill="#DAF3FE"/>
</g>
<g style="mix-blend-mode:screen">
<path d="M109.763 19.046C109.23 19.2377 108.713 19.4699 108.215 19.7405H108.436C108.959 19.5872 109.504 19.5231 110.048 19.5511C110.048 19.8353 109.574 19.8353 109.511 20.1194C109.447 20.4035 110.964 19.709 111.091 19.6458C111.889 19.1371 112.586 18.4841 113.145 17.7202C112.955 17.7202 112.766 17.7202 112.576 17.7202C112.387 17.7202 113.208 17.3729 113.429 17.0888H113.271C112.066 17.5301 110.893 18.0576 109.763 18.6672C110.079 18.6672 110.364 18.6672 110.68 18.6672C110.996 18.6672 110.554 18.7619 109.763 19.046Z" fill="#DAF3FE"/>
</g>
<g style="mix-blend-mode:screen">
<path d="M102.907 26.6222C102.559 26.8432 102.464 26.9379 102.907 27.2536C103.349 27.5693 104.487 27.2536 105.467 26.4644C106.446 25.6752 107.173 24.7913 106.668 24.7597C106.645 24.7672 106.624 24.7778 106.604 24.7913C105.321 25.2933 104.084 25.906 102.907 26.6222Z" fill="#DAF3FE"/>
</g>
<g style="mix-blend-mode:screen">
<path d="M118.486 18.0986H118.233C117.475 18.3195 116.78 18.6037 116.053 18.8246L113.493 19.4876C113.116 19.6001 112.746 19.7372 112.387 19.898C113.744 19.7817 115.088 19.5386 116.4 19.1719C117.077 18.9939 117.711 18.6827 118.265 18.2564L118.486 18.0986Z" fill="#DAF3FE"/>
</g>
<g style="mix-blend-mode:screen">
<path d="M112.387 19.3933C112.64 19.3933 115.168 18.32 115.895 17.9727C116.622 17.6255 116.274 17.7833 116.274 17.6255C116.274 17.4676 116.053 17.6255 116.053 17.4045C116.053 17.1835 116.053 17.4045 116.053 17.1835C116.053 17.1835 115.863 17.1835 115.705 17.1835L115.326 17.4045C114.757 17.8149 114.409 18.4463 113.746 18.6672C113.082 18.8882 112.545 18.9829 112.387 19.3933Z" fill="#DAF3FE"/>
</g>
<g style="mix-blend-mode:screen">
<path d="M118.236 15.6045C120.037 14.689 120.037 14.689 120.069 14.6259H119.879C119.879 14.6259 118.078 15.2257 117.572 15.4783C117.067 15.7308 117.161 15.9518 117.161 15.9518C117.161 15.9518 117.699 15.8571 118.236 15.6045Z" fill="#DAF3FE"/>
</g>
<g style="mix-blend-mode:screen">
<path d="M107.396 26.6852C107.396 26.6852 120.416 25.3593 123.83 21.9499C124.778 21.0344 122.471 20.9081 122.471 20.9081C119.668 21.4847 116.919 22.2978 114.254 23.3389C113.179 23.7809 112.357 22.8022 112.579 22.5181C112.78 22.3825 113.005 22.2861 113.242 22.234C115.328 21.6658 114.317 21.0028 114.064 20.9713C113.811 20.9397 113.053 21.2869 112.547 21.3501C112.041 21.4132 111.346 21.1922 110.714 21.3501C110.32 21.3838 109.929 21.4471 109.545 21.5395C108.991 21.9089 108.535 22.4073 108.217 22.9916C108.492 22.9956 108.764 22.9304 109.007 22.8022C109.608 22.6128 110.398 22.3287 110.556 22.455C110.714 22.5813 109.861 23.9703 109.798 24.0334C109.165 24.6016 108.281 24.8226 107.712 25.4856C106.606 26.6852 107.016 26.6852 107.396 26.6852Z" fill="#DAF3FE"/>
</g>
<g style="mix-blend-mode:screen">
<path d="M365.943 186.106C365.658 180.961 365.406 174.11 364.9 168.996C364.679 167.449 364.458 166.029 364.268 164.703C362.526 158.496 361.268 152.163 360.507 145.762V145.951C354.597 126.379 354.597 126.379 354.502 125.432C352.862 120.53 350.898 115.742 348.624 111.1L342.303 98.7563C340.475 96.249 338.192 94.1072 335.572 92.4426C338.216 94.076 340.505 96.2229 342.303 98.7563C339.87 94.7787 336.773 89.2857 334.181 85.5606C328.821 77.4554 322.806 69.8009 316.199 62.6735L308.866 55.2864L308.013 54.5288C309.097 55.8578 310.269 57.1128 311.521 58.2854C310.952 57.9697 310.478 57.5278 309.973 57.1805C311.002 58.5589 312.214 59.7908 313.575 60.8425L313.323 61.0319C308.171 56.8333 303.841 51.8139 298.658 47.71C301.02 49.6226 303.5 51.3834 306.085 52.9819C301.972 48.7457 297.368 45.0152 292.369 41.8698C290.781 41.0282 289.278 40.0344 287.882 38.9024L288.577 39.1549C288.042 38.7429 287.482 38.3634 286.902 38.0184L286.617 38.2394C285.391 37.6954 284.235 37.0065 283.173 36.1875L283.899 36.44C283.489 35.4614 278.938 33.2831 278.622 33.2831C278.811 33.7882 278.811 33.7882 279.57 34.6722C277.99 34.1355 277.199 32.4624 275.651 31.9257C275.935 32.6202 276.725 32.9675 277.01 33.662C276.441 34.9247 276.441 34.9247 276.536 35.6824C277.657 38.2934 278.956 40.8248 280.423 43.2588C283.141 47.4574 283.015 48.9096 283.015 49.0674C282.477 52.9503 282.477 52.9503 280.328 54.4972C279.538 55.0654 279.57 55.318 279.981 56.3597C279.981 56.3597 285.764 69.8711 291.042 67.4403C292.749 66.6511 291.895 63.8415 291.484 62.484C295.67 66.4081 299.567 70.6282 303.146 75.1115C304 76.5005 304.79 77.8263 306.307 77.8263C306.663 75.8516 306.455 73.8165 305.706 71.9546C303.589 68.0717 304.063 67.6297 305.137 66.6511C305.137 65.704 305.137 65.3568 302.324 63.4942C300.428 62.2631 300.428 62.2631 297.837 58.096C296.857 56.5176 298.5 54.4972 297.047 53.0135C295.639 51.7141 294.31 50.3333 293.065 48.878V48.3729L293.254 48.0888C295.634 49.1842 297.78 50.7277 299.575 52.6347H299.196C302.83 60.8109 302.83 60.8109 306.307 63.9993C309.783 67.1878 313.891 66.3985 316.925 69.1766C316.435 69.0447 315.959 68.865 315.503 68.6399L315.187 68.9872C315.39 69.3459 315.611 69.6936 315.851 70.0289C314.13 69.3995 312.366 68.8931 310.573 68.5136C312.901 70.9709 315.016 73.6217 316.894 76.4373C314.934 76.4373 314.776 73.5015 312.659 73.6593L312.469 73.975C312.469 73.975 314.871 78.3946 315.092 78.6787C315.314 78.9628 317.02 81.1726 316.925 82.0881C315.725 82.0881 315.724 82.0881 315.472 82.0881C315.219 82.0881 315.25 82.8773 315.092 83.2561L315.314 83.5403C309.751 83.1299 309.751 83.1299 309.72 83.5403L308.961 84.0138C307.65 83.3399 306.243 82.8714 304.79 82.6248L307.476 83.0983C306.396 82.2403 305.026 81.833 303.652 81.9618C302.925 81.9618 302.735 81.9618 300.681 79.6258C298.955 77.93 297.843 75.7087 297.521 73.3121C297.521 72.3966 296.225 68.6083 295.214 68.5136C295.214 68.5136 292.053 68.5136 292.685 69.9027C294.556 73.4602 296.746 76.8413 299.227 80.0046C299.667 80.446 300.059 80.9327 300.397 81.4567C300.397 81.6146 300.207 81.6461 299.417 81.804L297.552 82.0881L297.015 82.8773C294.076 82.8773 294.076 82.8773 293.254 83.5718C293.59 85.2914 294.065 86.9807 294.676 88.6228C294.676 88.8753 294.36 89.191 294.202 89.4436C292.898 89.2232 291.558 89.3878 290.347 89.9171C290.347 89.9171 290.347 89.9171 291.421 92.632C290.777 93.0723 290.075 93.4228 289.335 93.6738C289.327 94.3466 289.187 95.0115 288.925 95.631C288.112 95.7141 287.29 95.634 286.509 95.3955C285.727 95.157 285.001 94.7648 284.374 94.242C284.708 94.8486 285.089 95.429 285.511 95.9783C285.511 96.2624 285.29 96.6412 285.227 96.9253C284.596 97.2073 283.94 97.4293 283.267 97.5883C281.877 96.7043 281.877 96.7043 279.665 96.6728C279.665 96.9253 279.38 97.2726 279.285 97.5251L281.118 99.1667L280.36 99.7033C284.029 100.66 287.207 102.952 289.271 106.13C291.335 109.307 292.136 113.14 291.516 116.877C285.195 116.435 279.317 114.572 273.154 113.941C273.5 114.526 273.902 115.075 274.355 115.582C274.355 115.772 275.05 132.251 277.168 132.882C277.044 134.746 276.812 136.601 276.473 138.438C278.814 138.025 281.21 138.025 283.552 138.438C284.247 141.342 284.247 141.342 284.279 141.405L294.392 138.059C297.173 137.712 297.868 134.176 296.351 131.745C297.963 125.116 298.058 125.084 302.198 123.443C302.198 118.108 302.198 118.108 302.704 117.729C304.632 116.119 306.149 118.676 307.95 118.676C309.593 115.772 311.11 113.909 313.512 116.119C313.512 116.119 327.734 132.377 329.093 136.891C330.167 140.332 329.662 140.395 323.72 141.216C325.117 143.092 326.729 144.798 328.524 146.299C329.03 144.689 328.018 143.142 328.334 141.532H329.219C329.946 140.427 330.262 139.101 330.958 137.964C330.402 136.633 330.102 135.208 330.073 133.766L330.989 133.545L332.19 135.186C331.906 133.734 331.906 133.734 327.133 128.02L327.355 127.105C325.111 126.095 323.341 125.305 317.368 113.12C317.695 112.612 318.169 112.215 318.727 111.983L332.253 127.768C332.253 127.768 332.253 127.768 336.362 139.417L340.47 149.361C340.516 148.72 340.516 148.076 340.47 147.435C340.255 145.152 339.8 142.898 339.111 140.711C337.658 133.419 337.658 133.419 338.384 132.882C339.41 133.152 340.359 133.655 341.159 134.35C341.959 135.045 342.588 135.914 342.999 136.891C343.307 136.334 343.571 135.753 343.789 135.155H344.737C345.622 128.494 340.881 122.748 341.576 116.214C342.129 116.024 342.73 116.024 343.283 116.214C343.283 116.466 343.03 116.782 342.904 117.034C343.504 117.781 344.245 118.403 345.084 118.865C345.357 119.836 345.357 120.862 345.084 121.833C345.814 122.903 346.489 124.01 347.107 125.148C350.267 123.285 345.527 120.002 346.475 117.319C347.897 117.003 348.15 117.476 348.561 118.581L348.087 119.434C348.592 120.223 348.592 120.223 349.319 123.096L348.782 123.853C351.089 129.536 356.335 133.987 356.114 140.742L355.324 141.184C352.543 139.353 352.701 133.229 348.213 134.397C348.164 135.005 347.92 135.58 347.518 136.039C346.927 135.837 346.326 135.668 345.716 135.534C345.885 136.102 346.189 136.622 346.601 137.049C345.558 137.901 344.168 137.396 343.062 137.933C342.999 138.615 342.999 139.302 343.062 139.985L343.915 140.237C344.357 143.615 345.211 149.96 349.383 153.465L350.046 152.802V151.918C351.405 153.054 351.848 155.075 353.428 155.895C353.646 155.306 353.784 154.69 353.839 154.064C354.275 154.503 354.79 154.856 355.356 155.106C356.051 167.954 356.177 169.943 354.755 173.416C352.922 173.416 352.606 172.848 352.006 171.048C351.418 171.079 350.859 171.313 350.425 171.711C344.294 171.269 344.832 162.241 338.416 162.241C337.215 164.387 338.163 166.85 337.341 169.028L336.457 169.407C335.129 168.428 321.034 155.611 320.023 153.907C319.707 153.401 320.023 152.454 320.433 151.949C321.224 150.718 321.224 150.718 320.623 143.11C319.727 142.503 318.798 141.945 317.842 141.437C316.609 142.384 316.609 142.384 311.521 141.216C311.024 141.665 310.597 142.186 310.257 142.763C303.557 140.143 298.121 147.498 291.295 145.194H290.315C288.419 145.572 287.787 145.73 285.733 143.268L285.322 143.015C285.026 143.243 284.751 143.497 284.5 143.773C283.236 145.288 284.184 147.467 282.983 149.013C281.782 150.56 278.59 150.876 277.168 152.959C276.757 153.591 276.947 154.696 276.915 155.453C276.504 163.535 276.504 163.535 274.324 164.577C272.208 165.696 270.27 167.121 268.572 168.807C267.339 170.764 258.427 186.233 258.427 186.264C258.048 190.4 260.797 193.872 260.86 197.913C260.86 201.322 256.057 202.932 257.7 206.847C260.007 212.75 263.167 218.212 265.917 223.894C267.055 226.293 275.651 234.501 277.263 234.343C285.353 233.585 293.065 230.523 301.44 231.439C301.734 231.505 302.006 231.646 302.23 231.849C303.715 233.112 302.672 235.353 304.126 236.616C305.58 237.879 307.286 237.247 309.025 237.753C309.561 238.728 309.821 239.832 309.776 240.944C309.732 242.057 309.384 243.136 308.772 244.066C322.677 246.623 331.463 248.959 337.816 252.053C328.55 248.125 318.822 245.388 308.866 243.908C305.169 252.527 305.169 252.527 305.706 254.989C306.591 258.872 307.824 264.175 302.83 275.856C300.555 281.222 296.162 285.326 293.159 290.062C290.157 294.797 289.999 300.1 287.408 304.709C277.326 322.672 277.01 322.988 275.398 324.629C274.131 325.846 273.158 327.336 272.554 328.986C277.737 330.596 283.836 326.46 285.827 325.103L293.855 319.452L303.999 311.37C306.275 308.971 307.634 305.877 310.099 303.604C312.564 301.332 316.641 299.753 319.58 297.291C325.061 291.209 329.57 284.32 332.949 276.866C335.508 270.552 344.263 261.082 346.854 258.304C351.562 251.9 355.251 244.808 357.789 237.279C356.746 236.932 356.746 236.932 354.913 237.279C354.502 236.711 354.502 236.711 355.356 229.292C355.413 226.552 355.297 223.81 355.008 221.084C355.008 213.981 356.241 206.91 355.608 199.807L353.712 177.394C354.186 178.088 354.186 178.088 354.66 181.308C355.158 180.826 355.509 180.213 355.672 179.54C360.254 196.429 355.387 213.413 355.924 230.334C357.789 229.482 357.789 229.482 358.611 229.671C363.541 219.064 363.541 219.064 363.762 217.707C363.762 218.022 363.762 218.401 363.762 218.717C363.762 218.148 364.015 217.422 364.11 216.854V216.223L364.647 212.308C364.868 210.54 365.153 208.299 365.564 202.206C365.564 202.522 365.564 202.838 365.564 203.122C365.753 197.724 365.974 191.157 365.943 186.106ZM364.805 205.71C364.458 204.953 364.458 204.953 364.805 198.576C364.616 200.596 364.616 200.596 364.521 201.48C364.047 187.685 364.236 186.422 364.521 184.686C365.472 190.389 365.811 196.178 365.532 201.954C365.423 203.228 365.18 204.487 364.805 205.71Z" fill="#DAF3FE"/>
</g>
<g style="mix-blend-mode:screen">
<path d="M360.825 145.446C360.825 145.667 360.825 145.983 360.825 146.204L361.773 150.339C361.759 150.266 361.759 150.192 361.773 150.119C362.089 152.581 362.563 154.98 363.069 157.379C362.205 151.161 360.864 145.019 359.055 139.006C358.676 137.838 358.328 136.733 357.98 135.85C360.13 143.205 360.224 143.521 361.141 147.404L360.825 145.446Z" fill="#DAF3FE"/>
</g>
<g style="mix-blend-mode:screen">
<path d="M357.506 133.798L357.791 134.492C357.469 133.624 357.195 132.739 356.969 131.841L357.254 132.725L355.073 126.411C354.957 126.086 354.82 125.77 354.662 125.464C355.515 128.021 356.558 131.241 358.044 135.818C357.917 135.282 357.728 134.492 357.506 133.798Z" fill="#DAF3FE"/>
</g>
<g style="mix-blend-mode:screen">
<path d="M364.428 165.303C364.175 162.651 363.67 159.999 363.164 157.379C363.448 159.431 363.828 161.83 364.27 164.703C364.333 164.892 364.365 165.082 364.428 165.303Z" fill="#DAF3FE"/>
</g>
<g style="mix-blend-mode:screen">
<path d="M86.978 30.0947C86.5671 30.3156 83.2487 32.2097 83.0907 32.4307C82.9327 32.6517 83.4699 32.4307 86.978 30.0947Z" fill="#DAF3FE"/>
</g>
<g style="mix-blend-mode:screen">
<path d="M346.794 156.842L345.214 154.821C345.032 154.607 344.79 154.453 344.518 154.379C343.997 154.315 343.48 154.22 342.97 154.095C342.085 153.748 342.085 153.748 341.99 153.748C341.895 153.748 341.484 154.127 341.737 154.537C343.101 155.873 344.89 156.689 346.794 156.842Z" fill="#DAF3FE"/>
</g>
<g style="mix-blend-mode:screen">
<path d="M313.45 132.124C313.766 132.471 314.462 132.124 314.588 132.913C314.714 133.702 314.588 134.049 314.588 134.617C314.609 134.776 314.678 134.924 314.785 135.042C314.892 135.16 315.033 135.244 315.188 135.28C315.568 135.28 317.496 134.744 317.527 133.197C317.543 133.008 317.543 132.818 317.527 132.629C317.527 131.997 317.179 131.366 317.085 130.735C316.99 130.103 317.085 129.346 317.085 128.683C317.085 128.02 316.547 127.451 316.168 127.42C315.636 127.47 315.122 127.637 314.663 127.91C314.204 128.183 313.811 128.555 313.513 128.998C313.115 129.998 313.092 131.108 313.45 132.124Z" fill="#DAF3FE"/>
</g>
<g style="mix-blend-mode:screen">
<path d="M303.874 131.809C304.154 131.518 304.418 131.213 304.664 130.893C304.664 130.577 304.19 130.325 303.242 130.199C302.294 130.072 300.556 130.199 301.188 131.083C301.835 131.618 302.627 131.948 303.463 132.03C303.544 132.026 303.623 132.004 303.694 131.966C303.765 131.928 303.827 131.874 303.874 131.809Z" fill="#DAF3FE"/>
</g>
<g style="mix-blend-mode:screen">
<path d="M313.45 123.127C313.347 123.186 313.267 123.276 313.222 123.385C313.176 123.493 313.167 123.613 313.197 123.727C313.233 123.925 313.32 124.11 313.45 124.264C313.45 124.264 314.967 126.032 315.061 126.063C315.156 126.095 315.061 123.254 314.809 121.896C314.665 121.092 314.398 120.315 314.018 119.592C314.015 119.665 314.015 119.739 314.018 119.813C313.971 120.464 313.971 121.118 314.018 121.77C314.053 122.026 314.019 122.287 313.919 122.526C313.819 122.765 313.657 122.972 313.45 123.127Z" fill="#DAF3FE"/>
</g>
<g style="mix-blend-mode:screen">
<path d="M353.113 161.545C353.113 161.545 353.998 161.735 354.061 161.545C354.221 160.839 354.327 160.121 354.377 159.399C354.377 159.209 354.377 159.178 354.377 159.178C354.377 159.178 353.903 159.178 353.65 159.178C353.455 159.173 353.267 159.107 353.113 158.988C352.892 158.988 352.734 158.609 352.481 158.515C352.228 158.42 352.196 158.515 352.133 158.515C352.053 158.956 352.067 159.41 352.176 159.846C352.285 160.281 352.486 160.688 352.765 161.04C352.778 161.146 352.817 161.247 352.877 161.335C352.938 161.423 353.018 161.495 353.113 161.545Z" fill="#DAF3FE"/>
</g>
<g style="mix-blend-mode:screen">
<path d="M68.3643 43.9537H68.5855C69.66 43.2276 70.5765 42.3121 71.7459 41.586C73.6421 40.2601 75.6963 39.1552 77.561 37.7978C78.0034 37.4821 78.0034 37.4821 78.5407 36.4404C77.9224 36.6516 77.3372 36.9492 76.8025 37.3243C77.2765 36.9139 77.2765 36.9139 77.3713 36.5982H77.1501C74.8114 37.5768 74.8114 37.5768 64.5086 46.0688C63.4907 46.7921 62.6836 47.7726 62.1699 48.9099C64.4153 47.4966 66.4933 45.8339 68.3643 43.9537Z" fill="#DAF3FE"/>
</g>
<g style="mix-blend-mode:screen">
<path d="M82.839 34.2626C83.5022 34.065 84.1311 33.7669 84.7037 33.3787C86.2681 32.4588 87.8824 31.6262 89.5391 30.8848C90.6152 30.5598 91.6706 30.1697 92.6994 29.7168C93.4895 29.3064 96.4287 27.2544 96.4603 27.2228C97.0291 26.844 97.0607 26.7493 97.124 26.6546C96.8099 26.6452 96.5007 26.7335 96.239 26.9072C95.3541 27.4123 94.564 28.1068 93.6475 28.6119C94.7853 27.5385 96.081 26.623 97.1556 25.455C97.1556 25.455 93.4579 27.3491 93.3315 27.8858C93.2051 28.4224 92.7626 29.1801 89.9183 29.843C89.9998 29.7775 90.074 29.7034 90.1395 29.622C90.5188 29.2117 91.8145 28.9591 91.2773 28.3593C91.2773 28.3593 83.6607 32.0213 83.5975 33.063C84.8641 32.4855 86.0891 31.821 87.2636 31.0742C86.8843 31.674 86.2207 31.895 85.6834 32.3054C85.6834 32.3054 85.6834 32.3054 86.6947 31.8318C87.2118 31.5562 87.7509 31.3239 88.3065 31.1373C86.685 32.1094 85.007 32.9844 83.2815 33.7575C82.5546 33.8522 82.523 34.2626 82.839 34.2626Z" fill="#DAF3FE"/>
</g>
<g style="mix-blend-mode:screen">
<path d="M61.8536 52.8562C62.3909 53.0141 62.8017 52.509 63.339 52.5405C63.1178 53.2035 62.4857 53.5823 62.1697 54.1505C65.2505 53.1048 68.1425 51.5698 70.7343 49.6047C71.2741 49.089 71.8929 48.6627 72.5673 48.3419L72.3145 48.8786C73.0112 49.1884 73.7437 49.4111 74.4951 49.5415C76.2965 48.9102 76.2965 48.9102 78.0663 46.9529C77.8767 46.9529 77.8767 46.9529 76.2017 47.8053C76.5582 47.2811 77.0265 46.8422 77.5729 46.5202C78.1193 46.1981 78.7304 46.0009 79.3621 45.9427C79.8046 45.9427 79.8994 45.9427 80.0574 45.9427C80.2154 45.9427 80.9739 45.0904 80.8159 44.3643C79.8678 43.8276 79.4885 42.7543 79.9942 42.1545C81.6207 40.3448 83.1202 38.4251 84.4819 36.409C84.3028 36.318 84.111 36.2542 83.913 36.2196C83.913 36.2196 83.913 36.2196 83.913 36.0302C82.3449 37.8014 80.6209 39.4284 78.7616 40.8918C78.572 40.0078 79.4569 39.7237 79.7414 39.1239H79.5517C78.7826 39.5659 77.9794 39.9459 77.1498 40.2604C77.4027 39.85 77.8451 39.629 78.0347 39.1871C76.8654 39.5343 75.9805 40.4498 74.8744 40.8918C75.5696 39.9131 76.7074 39.5027 77.4975 38.6504C76.8022 38.6504 67.5107 44.68 67.7635 45.8164L68.1112 46.0058C67.9215 46.29 67.9215 46.3215 66.8154 46.9845C64.9824 48.0894 64.8876 48.3104 64.9192 48.5629C65.0224 48.5927 65.132 48.5927 65.2352 48.5629C66.2781 48.3419 67.0998 47.679 68.1428 47.4264C69.1857 47.1739 69.5649 47.5843 70.2918 47.4264C69.1649 48.2343 67.9017 48.8331 66.5626 49.1943C61.4428 50.5201 60.9687 52.6668 61.8536 52.8562Z" fill="#DAF3FE"/>
</g>
<g style="mix-blend-mode:screen">
<path d="M104.231 61.6315C104.389 61.2213 103.978 61.2528 103.662 61.2844C103.347 61.3159 102.241 61.5684 101.893 62.0102C101.697 62.2382 101.576 62.5217 101.547 62.8213C101.519 63.121 101.585 63.422 101.735 63.6828C102.241 64.1246 104.01 62.1995 104.231 61.6315Z" fill="#DAF3FE"/>
</g>
<g style="mix-blend-mode:screen">
<path d="M101.864 58.2539C102.003 58.1919 102.123 58.0938 102.212 57.9698C102.258 57.7913 102.256 57.6038 102.206 57.4263C102.156 57.2488 102.06 57.0878 101.927 56.9596C101.643 56.6755 101.232 56.5176 100.947 56.2019C100.53 55.5964 100.076 55.0166 99.5884 54.4657L99.2724 54.2763C98.7035 53.8974 97.9766 53.9606 97.3762 53.6133C96.7757 53.2661 96.9969 52.8557 96.6177 52.6347H96.4597C95.5511 53.5085 94.7453 54.4829 94.0578 55.539C93.8049 55.8547 93.5205 56.2966 93.2993 56.6439L91.3398 59.8008C92.5092 59.8008 92.5092 59.8007 92.604 60.4953C92.6988 61.1898 92.604 61.2529 92.8252 61.2213C93.2343 61.0067 93.6075 60.7298 93.9314 60.4006C95.0989 59.2404 96.5829 58.4498 98.1979 58.1276C99.4304 58.0329 100.631 58.6959 101.864 58.2539Z" fill="#DAF3FE"/>
</g>
<g style="mix-blend-mode:screen">
<path d="M98.6403 60.4328C97.4268 60.6686 96.2551 61.0835 95.1639 61.664C94.6582 62.0428 94.595 63.1477 94.8795 63.3372C95.1639 63.5266 98.6719 61.8219 99.2724 60.9064C99.462 60.6223 99.4936 60.3066 98.6403 60.4328Z" fill="#DAF3FE"/>
</g>
<g style="mix-blend-mode:screen">
<path d="M91.9722 206.342C90.9609 206.721 91.5297 208.3 92.1302 208.489C92.7307 208.679 95.1326 209.12 95.0694 208.079C94.7867 207.513 94.3403 207.044 93.788 206.735C93.2358 206.425 92.6032 206.289 91.9722 206.342Z" fill="#DAF3FE"/>
</g>
<g style="mix-blend-mode:screen">
<path d="M271.293 78.1103C271.104 78.1103 271.293 78.1103 271.293 78.3943H272.525C272.138 78.2176 271.719 78.121 271.293 78.1103Z" fill="#DAF3FE"/>
</g>
<g style="mix-blend-mode:screen">
<path d="M150.848 91.2428C152.049 89.6959 152.555 88.6542 152.397 88.0859C152.362 88.0692 152.324 88.0605 152.286 88.0605C152.248 88.0605 152.21 88.0692 152.176 88.0859C150.736 88.9356 149.479 90.0623 148.478 91.4006C146.866 93.3894 145.76 95.7255 144.18 97.7143C143.326 98.7877 142.157 99.5453 141.367 100.65C141.051 101.092 141.367 101.218 141.367 101.282C143.026 101.576 144.707 101.734 146.392 101.755C148.719 101.883 151.027 102.243 153.282 102.828L154.103 103.018C154.862 103.018 155.684 102.292 156.442 103.018C156.763 103.491 156.919 104.057 156.884 104.628C156.884 105.133 157.137 105.196 157.295 105.164C158.054 105.164 159.002 103.586 159.097 102.355C158.948 99.8234 157.92 97.423 156.189 95.5677C155.399 94.6837 155.399 94.6837 152.555 95.3151C151.701 95.5045 151.512 95.3151 151.322 94.589C150.943 93.2632 150.627 93.0106 150.09 92.7581C149.552 92.5055 149.837 92.5055 150.09 92.253C150.313 91.8954 150.567 91.5575 150.848 91.2428Z" fill="#DAF3FE"/>
</g>
<g style="mix-blend-mode:screen">
<path d="M262.851 66.3044C262.851 67.283 262.251 68.167 262.63 69.1771C262.946 69.1771 263.578 69.1772 264.906 68.1985C265.411 67.8513 265.822 67.5356 266.138 67.6934C267.529 68.4511 265.917 69.9348 266.391 71.0081C266.649 71.7578 267.11 72.4208 267.725 72.9227C268.339 73.4246 269.081 73.7455 269.867 73.8493C270.88 73.9925 271.863 74.3018 272.775 74.7648C272.775 75.112 272.775 75.4909 272.775 75.8381C273.375 76.8799 274.418 77.6059 274.956 78.7108C275.493 79.8157 273.818 79.1844 272.807 78.7108C272.276 78.4916 271.706 78.3841 271.132 78.3952C271.637 79.8473 273.249 80.5418 273.565 82.1202C273.755 82.941 272.965 83.383 271.827 83.9512C271.542 83.9512 271.1 84.2985 271.258 84.6457C271.416 84.993 271.827 85.3718 274.418 85.3087C275.556 85.3087 277.926 85.3087 277.99 85.9716C278.053 86.6345 277.484 86.6977 276.694 86.6661C276.444 86.6384 276.19 86.6697 275.954 86.7574C275.718 86.8451 275.506 86.9868 275.335 87.1712C274.766 87.6763 274.671 88.4971 274.166 89.0653C273.66 89.6336 272.68 90.2018 272.048 90.8963V91.0857C273.895 91.0693 275.736 90.879 277.547 90.5175C280.139 90.2018 282.762 90.5175 285.353 90.0124L289.809 88.4971C289.809 88.4971 289.809 88.4971 289.809 88.3392C288.861 87.4238 287.692 88.3392 286.649 87.8973C286.175 86.5398 287.408 85.3087 286.902 83.9828C285.985 81.5836 285.037 81.6152 284.279 81.6783C282.572 81.6783 281.371 79.3422 281.371 79.3107C281.371 79.3107 281.371 79.3106 282.825 79.5632C283.457 79.7842 284.279 80.0683 284.216 79.7526C284.01 79.4765 283.765 79.2319 283.489 79.0265C281.328 77.6773 279.249 76.2016 277.263 74.6069C276.464 73.5823 275.552 72.6505 274.545 71.8289C273.178 70.9294 271.597 70.4066 269.962 70.3136C271.1 69.3034 272.585 64.3156 269.551 64.1893C269.015 64.1531 268.476 64.1531 267.94 64.1893C266.012 64.4419 265.664 64.505 265.664 63.9999C265.664 62.9897 267.339 61.0956 265.949 61.0009C265.949 61.0009 262.156 61.0009 261.587 62.4215C261.541 62.5652 261.541 62.7197 261.587 62.8634C261.84 64.1578 262.662 65.1048 262.851 66.3044Z" fill="#DAF3FE"/>
</g>
<g style="mix-blend-mode:screen">
<path d="M14.1641 115.393C14.6381 114.256 14.8909 113.057 15.3334 111.92C15.7759 110.784 15.9339 110.563 16.1867 109.9V109.616C16.1867 109.616 16.3763 108.984 16.1867 109.047C15.0585 110.977 14.3781 113.134 14.1957 115.361C14.1844 115.371 14.1738 115.381 14.1641 115.393Z" fill="#DAF3FE"/>
</g>
<g style="mix-blend-mode:screen">
<path d="M238.234 41.2385C238.234 41.2385 238.234 41.0806 238.234 41.0175C237.864 40.4216 237.325 39.9491 236.685 39.66L236.179 39.5022C235.117 39.4147 234.061 39.2565 233.019 39.0287C232.261 38.7445 231.692 37.9869 230.775 38.0185C229.859 38.05 228.753 38.713 227.615 38.9655C226.477 39.2181 225.529 39.1549 224.454 39.4706C223.38 39.7863 224.454 40.4808 223.791 40.7649C223.127 41.049 222.685 40.5124 222.147 40.7649L221.894 40.9543C221.673 41.8383 222.495 42.88 221.515 43.6692C220.394 42.9181 219.393 42.0029 218.544 40.9543C217.915 40.1272 217.05 39.5096 216.063 39.1828C215.076 38.856 214.013 38.8352 213.014 39.1234C213.298 39.9441 214.31 39.7547 214.752 40.3545C214.468 41.5541 213.045 41.3647 212.477 42.2171C212.824 42.4696 213.962 42.2171 214.594 42.2171C215.732 41.9961 219.303 43.2273 217.312 44.8688C218.165 45.9106 219.303 45.0267 220.251 45.3108C221.199 45.5949 221.262 45.9422 221.262 46.8261C221.515 47.0471 221.705 47.1418 223.727 46.8261C224.437 46.7051 225.157 46.6522 225.877 46.6682C226.856 46.6682 227.741 47.1733 228.689 47.2365H229.1C230.271 47.1564 231.428 46.9338 232.545 46.5735C234.947 46.0053 238.613 43.4167 238.423 42.5643C238.234 41.712 237.886 41.712 237.728 41.2385C237.57 40.7649 237.949 41.2069 238.234 41.2385Z" fill="#DAF3FE"/>
</g>
<g style="mix-blend-mode:screen">
<path d="M95.1942 202.048C97.5404 203.387 100.309 203.782 102.937 203.153C102.937 202.711 94.5937 193.019 94.4989 192.956C93.2926 192.133 91.9226 191.581 90.4826 191.335C89.0426 191.09 87.5666 191.159 86.1555 191.536C84.4243 192.116 82.8393 193.063 81.5098 194.314C82.9601 194.534 84.44 194.195 85.6499 193.367C88.0834 191.978 89.7267 192.767 89.8848 193.367C90.0428 193.967 89.4107 193.935 88.6206 193.367C88.6206 194.535 90.6749 195.04 91.9706 195.356C94.3725 195.955 94.5305 196.46 95.131 197.976C95.3065 198.643 95.6186 199.266 96.0475 199.807C96.3951 200.249 96.648 200.564 96.648 200.817C96.49 201.575 95.5734 201.575 95.1942 202.048Z" fill="#DAF3FE"/>
</g>
<g style="mix-blend-mode:screen">
<path d="M105.688 210.099C106.351 210.478 105.688 211.74 106.794 211.835C108.469 211.835 108.279 209.752 109.701 209.594C109.974 209.562 110.25 209.562 110.523 209.594C112.86 209.91 115.213 210.099 117.571 210.162C117.76 210.162 117.918 210.162 117.918 209.878C117.918 209.12 117.35 208.489 117.539 207.731C118.171 205.332 105.909 204.259 105.15 204.385C104.929 204.385 104.898 204.385 104.834 204.385C104.771 204.385 104.834 204.574 104.834 204.732C105.372 205.163 105.769 205.746 105.971 206.404C106.174 207.063 106.174 207.767 105.972 208.426C105.751 208.647 104.771 208.426 103.412 208.426C100.947 208.015 100.694 208.078 100.568 208.142C100.441 208.205 100.568 208.142 100.568 208.142C102.306 209.278 104.171 209.246 105.688 210.099Z" fill="#DAF3FE"/>
</g>
<g style="mix-blend-mode:screen">
<path d="M130.34 96.4833C129.297 96.8621 131.699 98.0301 132.173 98.2511C135.333 99.7348 136.439 98.2511 136.471 98.2511C136.85 97.3988 131.509 96.2939 130.34 96.4833Z" fill="#DAF3FE"/>
</g>
<g style="mix-blend-mode:screen">
<path d="M328.18 293.124C324.703 297.607 324.609 297.638 322.365 298.427C320.121 299.217 319.9 299.943 317.119 304.015C316.302 305.376 315.228 306.566 313.958 307.519C310.157 310.789 306.78 314.522 303.908 318.631C305.425 318.631 305.425 318.631 311.209 313.138C315.949 308.624 320.089 303.668 324.577 298.869C324.577 298.869 324.577 298.869 324.166 299.659C324.356 299.659 324.356 299.659 324.798 298.996C326.634 296.709 328.252 294.257 329.634 291.672C329.12 292.126 328.634 292.611 328.18 293.124Z" fill="#DAF3FE"/>
</g>
<g style="mix-blend-mode:screen">
<path d="M210.896 260.418C210.644 259.155 212.382 257.261 210.738 256.567C209.601 255.967 208.431 256.819 207.294 256.567C203.564 255.777 200.973 252.526 197.528 251.421C192.187 249.779 186.688 248.832 181.284 247.475C178.123 246.338 177.87 242.708 175.943 240.625C172.656 238.478 170.191 235.005 166.651 233.143C162.163 230.586 156.601 231.47 152.145 228.755C148.605 226.608 146.235 222.978 142.443 221.147C141.815 220.871 141.158 220.67 140.483 220.547C122.153 217.801 107.678 215.622 106.035 230.018C100.599 226.166 86.5987 232.259 87.8945 223.23C88.3845 219.986 87.8312 216.67 86.3143 213.76C82.0478 211.613 77.7497 213.76 73.4515 213.539C74.8737 208.867 74.8737 208.867 73.8308 206.688C75.1926 204.107 76.0911 201.308 76.4855 198.417C75.6638 197.723 68.5214 192.104 67.0044 208.077C64.5393 208.077 62.9591 211.234 60.1463 209.751C55.6138 207.433 52.1582 203.45 50.5072 198.638C49.5907 195.482 52.2138 193.082 52.1506 190.115C52.1506 188.221 49.5591 187.305 50.2228 185.159C52.0772 181.797 54.5298 178.802 57.46 176.319C59.6407 174.678 68.0157 176.54 68.0789 176.572L68.8374 175.972C68.108 175.409 67.3368 174.903 66.5303 174.457C66.5303 174.173 66.5303 173.794 66.7199 173.51C71.6756 172.443 76.704 171.747 81.7633 171.426C87.4836 174.583 83.9756 182.475 89.4747 185.664C95.7954 178.845 85.5558 172.784 86.6935 165.933C87.8313 159.083 94.9737 157.189 98.9558 152.675L98.3553 152.012C98.3553 151.728 98.3553 151.412 98.3553 151.159L99.177 150.907C99.177 150.591 99.177 150.181 99.177 149.865L98.3553 149.581L99.6827 136.575C99.6827 138.5 99.6827 144.341 99.6827 144.341C100.283 143.962 100.283 143.962 100.852 135.407C101.326 136.322 102.148 137.017 102.337 138.09C103.507 136.07 103.127 133.449 104.929 131.776C107.614 130.242 110.377 128.851 113.209 127.609C113.904 120.885 113.904 120.885 117.697 117.381C118.329 117.381 118.329 117.381 129.264 111.067L128.885 111.825C129.516 112.088 130.192 112.227 130.876 112.235V113.182C124.555 117.665 124.555 117.665 124.555 118.991C128.821 118.991 142.032 111.383 139.693 105.448C137.86 106.679 137.797 108.921 136.691 110.531L133.183 109.552C133.855 109.324 134.44 108.894 134.858 108.321H134.478C133.422 108.57 132.313 108.47 131.318 108.037C131 107.922 130.734 107.695 130.571 107.399C130.408 107.102 130.359 106.757 130.433 106.427C130.433 106.143 130.433 106.143 130.433 106.111C130.126 106.903 130.126 107.781 130.433 108.573C128.79 107.784 128.505 106.963 127.873 104.975C126.325 104.406 126.23 104.28 125.566 103.459C127.873 102.828 129.548 102.386 130.054 100.081C128.853 98.9134 128.853 98.9134 112.356 109.205C123.733 97.3981 123.733 97.3981 135.395 93.8624C138.05 95.6934 149.964 89.7901 151.766 86.4754C151.197 85.0548 151.197 85.0548 152.05 82.9082L151.513 82.0874L148.669 81.4876H147.815C145.828 81.7668 143.946 82.5493 142.348 83.7605C142.348 83.508 142.095 83.1923 142 82.9713C142.948 81.6139 143.422 81.4244 146.93 80.067C140.104 80.6668 133.404 81.235 126.072 81.9611C132.803 81.2666 138.713 80.7299 146.994 80.067C147.15 80.012 147.293 79.9245 147.413 79.8102C147.532 79.6959 147.627 79.5575 147.689 79.4041C146.993 78.5151 146.042 77.8601 144.963 77.5271C143.884 77.1941 142.729 77.1992 141.652 77.5415C140.862 77.7309 140.862 77.7309 140.452 77.5415C140.199 76.8786 140.768 76.1209 140.262 75.4896C139.756 74.8582 138.334 74.8266 137.67 73.9743C137.007 73.1219 137.67 73.2482 138.113 72.5537C138.555 71.8592 138.871 71.4804 137.196 68.5129C132.993 61.0312 132.993 61.0312 130.876 64.9457C130.56 65.5455 131.35 66.1768 130.876 66.7766C130.402 67.3764 129.169 66.7766 128.6 67.629C127.304 69.3968 127.304 69.3968 126.925 69.5231C124.65 70.2176 123.038 68.3551 121.047 67.9131C120.908 65.8947 121.491 63.8926 122.69 62.2623C121.552 61.8835 120.32 62.4202 119.151 62.0098C118.866 62.0098 118.708 61.7257 118.361 61.1259C118.013 60.5261 117.95 60.3998 115.2 59.4527C114.787 59.3352 114.349 59.3352 113.936 59.4527C111.238 59.6694 108.556 60.0595 105.909 60.6208C106.383 63.0516 103.38 65.2614 105.403 67.7868C105.024 68.9864 103.475 69.3968 103.38 70.7859C103.285 72.1749 104.929 73.3429 104.992 74.9213C104.992 74.9213 104.992 81.235 101.484 82.0874C100.694 82.2768 98.8926 82.845 99.2718 84.1709C99.1138 84.3919 99.019 84.455 98.2921 85.0233C97.344 88.6536 99.7143 93.1995 95.5742 96.0723C94.2784 94.0834 91.9714 93.5152 90.1699 92.2525C90.5602 91.434 90.7628 90.5388 90.7628 89.6323C90.7628 88.7257 90.5602 87.8305 90.1699 87.0121L91.1813 86.1913C91.1813 86.0335 91.1813 85.7178 91.1813 85.5599H90.1067C88.4001 83.9184 86.3459 85.4021 84.5129 84.9286C82.6798 84.455 81.7001 82.5293 79.8987 81.7717C79.5598 81.6474 79.2109 81.5524 78.8558 81.4876C77.2124 81.2035 76.0431 82.4346 74.6209 82.8135C74.1468 82.4346 74.1468 82.4346 73.5148 78.678C73.2935 77.3837 73.2935 77.3837 70.3544 77.1627C69.6591 73.1851 79.3298 65.9874 83.4699 62.9253C82.9959 61.6625 81.6053 62.2308 80.8152 61.5994C88.8742 60.1788 88.8742 60.1788 93.4567 55.2857C92.4169 55.6694 91.3 55.7979 90.2001 55.6606C89.1001 55.5233 88.0493 55.124 87.136 54.4965C90.1067 53.4232 93.994 55.3173 96.2695 51.8132C95.9993 51.6484 95.6981 51.5409 95.3846 51.4975C95.3846 51.4975 96.8699 49.6981 98.5449 50.6767C103.76 48.7826 103.76 48.7826 105.15 47.5198C105.475 47.2309 105.761 46.9021 106.003 46.5412C106.541 45.5942 105.624 44.584 106.003 43.6369C106.383 42.6899 107.584 42.8477 108.184 42.1848C108.453 41.7281 108.665 41.2405 108.816 40.7326C108.816 40.7326 104.392 36.1867 102.906 42.5636C100.188 44.1104 98.2605 50.4241 94.9737 47.4883C95.2581 45.5626 99.2086 44.3314 97.344 42.3742C95.2581 43.1634 94.4048 45.2469 92.8563 46.6359C92.5086 45.5626 94.6261 42.7846 94.6577 42.753H92.6666C95.827 37.5126 95.827 37.5126 95.827 36.8812L95.3214 36.534C97.186 33.6613 97.186 33.6613 105.814 28.5787C105.304 28.4645 104.775 28.4645 104.265 28.5787C97.344 30.1887 87.9893 43.1318 87.9261 43.2581L88.1473 43.7632C88.9058 43.7632 89.6011 43.7632 90.3596 43.5422V43.9842C89.4499 44.3586 88.6149 44.8933 87.8945 45.5626V45.9414H88.3053C86.8515 48.4669 83.628 49.3192 82.427 52.2551C81.2893 51.0871 81.2893 51.0871 83.4067 48.8142C82.2058 48.53 82.2058 48.53 78.2553 51.6237C78.0341 51.7816 76.7067 52.6339 71.9346 52.3814C71.6185 51.9394 71.6501 51.3396 71.3341 50.8661C67.3836 51.8763 66.2143 54.023 63.9072 58.6951C63.4647 57.5586 64.4761 56.6116 64.3497 55.5382C62.2322 55.8855 60.494 57.6218 58.0289 57.2745C59.0086 56.3275 60.5572 55.9802 60.9364 54.4018L60.5256 54.1808C60.0199 54.4649 59.9251 54.5281 58.4081 54.3386C58.2239 54.0748 58.0121 53.8314 57.7761 53.6126C56.7015 53.8335 56.1011 54.749 55.2478 55.3173C55.4181 54.9936 55.6192 54.687 55.8482 54.4018C55.2853 54.7737 54.7751 55.2197 54.3313 55.7277C54.8165 54.6754 55.4793 53.7143 56.2907 52.8865C53.7308 55.2226 53.7308 55.2226 49.0534 59.2002C50.5072 57.8112 52.2138 56.5169 53.636 55.1279C50.9682 57.1838 48.4445 59.4199 46.0827 61.8204C46.2318 61.5284 46.4119 61.2532 46.6199 60.9996L37.9921 70.6911C31.9414 77.9158 26.4776 85.6114 21.653 93.7046C21.7551 93.5912 21.8403 93.4636 21.9058 93.3258C18.7454 101.66 18.7454 101.66 18.2081 103.933L17.4813 106.111L18.1133 106.869C17.1531 109.806 16.4239 112.815 15.9327 115.866C15.729 117.155 15.882 118.476 16.3751 119.686C16.1027 119.646 15.8259 119.646 15.5534 119.686C15.3638 119.686 15.269 119.686 15.2058 119.686C15.1426 119.686 15.2058 119.686 14.9846 119.212C14.7633 118.738 14.7317 118.328 14.5737 118.265C14.3225 119.43 14.3225 120.635 14.5737 121.801C14.953 123.126 15.8695 122.937 15.9011 122.937C16.0477 122.878 16.18 122.788 16.2891 122.674C16.3981 122.56 16.4813 122.423 16.5331 122.274C16.5837 122.003 16.5837 121.725 16.5331 121.453C16.5489 121.243 16.5489 121.032 16.5331 120.822C17.0694 122.07 17.3591 123.41 17.3864 124.768L15.8379 123.947C10.2756 130.64 8.31616 165.428 12.0454 171.931C12.5195 171.931 12.5195 171.931 20.61 188.536H18.6822C19.6619 190.588 26.8044 199.806 26.8676 199.87C27.4997 198.923 28.1633 197.944 24.9081 193.303C23.4228 191.188 21.7478 188.789 18.8718 177.235C20.0343 177.891 21.0351 178.798 21.8007 179.891C22.5663 180.983 23.0774 182.233 23.2964 183.549C23.5494 185.064 24.0288 186.532 24.7185 187.905C26.1723 190.21 27.8789 192.325 29.4907 194.566C31.5133 197.502 34.9581 199.144 36.6331 202.363C37.9921 204.952 37.3284 208.425 40.1412 210.382C40.5832 210.666 41.0616 210.889 41.5633 211.045C42.4097 211.467 43.2865 211.826 44.1864 212.118C47.0624 212.876 50.0015 213.318 52.9091 214.012C55.8166 214.707 59.0086 213.034 61.8846 214.675C68.6794 218.684 68.6794 218.684 70.8916 218.937H72.0294C82.4902 220.389 86.8199 233.301 98.2289 232.89C103.317 224.398 106.446 234.563 107.71 239.204C108.058 240.719 108.058 240.719 105.182 247.001C105.182 247.001 102.401 258.398 103.57 260.513C103.76 260.86 104.012 261.334 104.234 261.649C110.262 268.961 116.698 275.928 123.512 282.516C127.273 285.673 132.361 286.494 136.153 289.335C139.658 292.427 141.907 296.695 142.474 301.331C142.474 301.583 148.416 328.006 158.687 342.37C171.708 360.68 184.286 358.659 184.412 358.628C172.277 352.314 172.277 352.314 173.414 347.231C171.739 345.464 171.739 345.464 168.547 336.688C169.053 336.688 169.053 336.688 171.328 336.688C171.328 336.435 171.328 336.435 168.547 332.615C170.696 330.721 170.696 330.721 170.538 329.206L171.076 328.89C174.836 330.027 176.069 326.933 175.121 325.512L174.015 323.934C182.579 323.713 186.214 303.004 186.245 302.815C187.579 300.618 189.617 298.938 192.029 298.048C195.189 296.785 195.189 293.218 197.244 291.261C197.586 290.95 197.993 290.718 198.436 290.582C198.878 290.445 199.345 290.408 199.803 290.471C201.068 290.471 201.162 290.471 201.32 289.461C201.668 286.872 201.32 284.252 201.573 281.664C201.573 280.212 200.783 278.696 201.731 277.276C202.679 275.855 203.28 275.034 202.49 274.119C202.336 273.885 202.219 273.63 202.142 273.361C204.394 272.391 206.419 270.964 208.089 269.17C209.759 267.377 211.038 265.257 211.844 262.944C211.876 262.851 211.876 262.752 211.844 262.659C211.781 261.902 211.086 261.302 210.896 260.418ZM31.2289 98.6609C33.7572 97.8401 36.4435 97.0509 39.1931 96.2932C36.4541 97.0298 33.7993 97.819 31.2289 98.6609ZM112.514 246.307L122.406 245.139L112.514 246.307ZM185.202 291.639C185.202 290.377 184.665 286.273 184.002 279.012C184.381 283.274 184.792 287.504 185.234 291.955C185.213 291.843 185.17 291.735 185.108 291.639H185.202ZM181.663 252.084V252.81C181.694 252.494 181.694 252.273 181.663 252.084Z" fill="#DAF3FE"/>
</g>
<g style="mix-blend-mode:screen">
<path d="M121.868 211.046C120.888 211.709 122.152 212.972 123.353 213.161C124.618 213.265 125.891 213.093 127.082 212.656C127.082 212.499 127.082 212.183 124.902 211.551C122.721 210.92 122.405 211.046 121.868 211.046Z" fill="#DAF3FE"/>
</g>
<g style="mix-blend-mode:color-dodge" opacity="0.6">
<path d="M251.276 7.00558L331.749 61.591L331.465 62.6012L250.96 8.01577L251.276 7.00558Z" fill="#0AADED"/>
<path d="M251.276 7.00558L331.749 61.591L331.465 62.6012L250.96 8.01577L251.276 7.00558Z" fill="#0AADED"/>
<path d="M73.8335 227.777L74.7184 227.304L185.651 360.141L184.767 360.646L73.8335 227.777Z" fill="#0AADED"/>
<path d="M184.925 359.889L323.784 298.099L324.353 299.077L185.493 360.899L184.925 359.889Z" fill="#0AADED"/>
<path d="M238.774 131.967L331.338 61.6227L331.876 62.6013L239.342 132.977L238.774 131.967Z" fill="#0AADED"/>
<path d="M73.9915 227.051L238.742 131.999L239.342 132.977L74.5603 228.03L73.9915 227.051Z" fill="#0AADED"/>
<path d="M250.644 7.63696L251.624 7.41598L239.532 132.377L238.552 132.598L250.644 7.63696Z" fill="#0AADED"/>
<path d="M250.644 7.63696L251.624 7.41598L239.532 132.377L238.552 132.598L250.644 7.63696Z" fill="#0AADED"/>
<path d="M238.616 132.693L239.501 132.251L324.511 298.351L323.626 298.825L238.616 132.693Z" fill="#0AADED"/>
<path d="M123.072 302.847L123.989 302.405L185.651 360.173L184.735 360.615L123.072 302.847Z" fill="#0AADED"/>
<path d="M74.519 227.392L73.6753 227.949L123.214 302.824L124.058 302.267L74.519 227.392Z" fill="#0AADED"/>
<path d="M123.451 302.058L324.005 298.036L324.132 299.14L123.609 303.163L123.451 302.058Z" fill="#0AADED"/>
<path d="M274.328 188.727L274.991 189.674L123.862 303.1L123.199 302.153L274.328 188.727Z" fill="#0AADED"/>
<path d="M238.616 132.725L239.469 132.219L275.086 188.948L274.233 189.453L238.616 132.725Z" fill="#0AADED"/>
<path d="M331.149 61.7488L332.065 62.4433L275.086 189.548L274.201 188.853L331.149 61.7488Z" fill="#0AADED"/>
<path d="M74.1495 226.988L274.486 188.664L274.802 189.737L74.434 228.093L74.1495 226.988Z" fill="#0AADED"/>
<path d="M250.644 7.70032L251.592 7.35306L275.118 189.043L274.17 189.359L250.644 7.70032Z" fill="#0AADED"/>
<path d="M250.644 7.70032L251.592 7.35306L275.118 189.043L274.17 189.359L250.644 7.70032Z" fill="#0AADED"/>
<path d="M274.201 189.422L275.118 188.98L324.511 298.351L323.594 298.793L274.201 189.422Z" fill="#0AADED"/>
<path d="M274.201 188.853L275.086 189.548L231.6 259.82L230.715 259.125L274.201 188.853Z" fill="#0AADED"/>
<path d="M123.293 302.121L230.936 258.967L231.41 259.977L123.767 303.131L123.293 302.121Z" fill="#0AADED"/>
<path d="M238.521 132.377L239.564 132.567L231.694 259.567L230.651 259.378L238.521 132.377Z" fill="#0AADED"/>
<path d="M230.683 259.188L231.631 259.756L185.683 360.678L184.735 360.109L230.683 259.188Z" fill="#0AADED"/>
<path d="M74.3392 226.988L231.22 258.936L231.126 260.009L74.2443 228.093L74.3392 226.988Z" fill="#0AADED"/>
<path d="M231.283 258.967L324.195 298.067L323.91 299.077L231.031 259.977L231.283 258.967Z" fill="#0AADED"/>
<path d="M151.863 71.166L152.811 70.8187L231.631 259.314L230.683 259.63L151.863 71.166Z" fill="#0AADED"/>
<path d="M152.685 70.5976L274.991 188.822L274.328 189.579L152.021 71.3868L152.685 70.5976Z" fill="#0AADED"/>
<path d="M152.622 70.5344L239.311 132.03L238.805 132.914L152.084 71.4499L152.622 70.5344Z" fill="#0AADED"/>
<path d="M152.306 70.4399L331.56 61.5596L331.654 62.6645L152.4 71.5448L152.306 70.4399Z" fill="#0AADED"/>
<path d="M151.895 70.6924L152.811 71.2922L74.75 227.841L73.8018 227.241L151.895 70.6924Z" fill="#0AADED"/>
<path d="M250.707 7.13193L251.561 7.88958L152.78 71.3553L151.926 70.6292L250.707 7.13193Z" fill="#0AADED"/>
<path d="M250.707 7.13193L251.561 7.88958L152.78 71.3553L151.926 70.6292L250.707 7.13193Z" fill="#0AADED"/>
<path d="M152.021 70.5028L152.653 71.4815L10.9639 177.781L10.3318 176.834L152.021 70.5028Z" fill="#0AADED"/>
<path d="M11.0271 176.961L123.894 302.279L123.135 302.974L10.2686 177.655L11.0271 176.961Z" fill="#0AADED"/>
<path d="M10.9639 176.897L74.592 227.146L73.9599 227.935L10.3318 177.718L10.9639 176.897Z" fill="#0AADED"/>
<path d="M230.999 258.936L367.323 177.781L367.671 178.886L231.347 260.009L230.999 258.936Z" fill="#0AADED"/>
<path d="M274.802 188.696L367.639 177.813L367.355 178.854L274.517 189.706L274.802 188.696Z" fill="#0AADED"/>
<path d="M239.311 132.03L367.765 177.907L367.228 178.76L238.774 132.914L239.311 132.03Z" fill="#0AADED"/>
<path d="M331.086 62.0963H332.129L368.018 178.349L366.975 178.318L331.086 62.0963Z" fill="#0AADED"/>
<path d="M367.007 178.065L367.987 178.602L324.543 298.856L323.563 298.32L367.007 178.065Z" fill="#0AADED"/>
<path d="M44.9586 61.244L45.9067 61.8754L11.1219 177.623L10.2054 176.992L44.9586 61.244Z" fill="#0AADED"/>
<path d="M45.8435 61.244L152.748 70.6924L151.958 71.2922L45.0218 61.8438L45.8435 61.244Z" fill="#0AADED"/>
<path d="M45.7487 61.1492L239.374 132.093L238.71 132.851L45.1166 61.9384L45.7487 61.1492Z" fill="#0AADED"/>
<path d="M45.4327 60.9915L251.118 6.97425L251.15 8.07915L45.4327 62.0964V60.9915Z" fill="#0AADED"/>
<path d="M45.4327 60.9915L251.118 6.97425L251.15 8.07915L45.4327 62.0964V60.9915Z" fill="#0AADED"/>
<path d="M44.9586 61.244L45.9067 61.8754L11.1219 177.623L10.2054 176.992L44.9586 61.244Z" fill="#0AADED"/>
<path d="M45.8435 61.244L152.748 70.6924L151.958 71.2922L45.0218 61.8438L45.8435 61.244Z" fill="#0AADED"/>
<path d="M45.7487 61.1492L239.374 132.093L238.71 132.851L45.1166 61.9384L45.7487 61.1492Z" fill="#0AADED"/>
<path d="M45.4327 60.9915L251.118 6.97425L251.15 8.07915L45.4327 62.0964V60.9915Z" fill="#0AADED"/>
<path d="M45.4327 60.9915L251.118 6.97425L251.15 8.07915L45.4327 62.0964V60.9915Z" fill="#0AADED"/>
<path d="M124.356 6.12199L124.907 6.76923L45.7757 61.7881L44.9586 61.244L124.356 6.12199Z" fill="#0AADED"/>
<path d="M124.356 6.12199L124.907 6.76923L45.7757 61.7881L44.9586 61.244L124.356 6.12199Z" fill="#0AADED"/>
<path d="M124.356 6.12199L124.798 7.00582L11.1219 177.623L10.1738 176.992L124.356 6.12199Z" fill="#0AADED"/>
<path d="M124.735 6.37445L152.748 70.6924L151.958 71.2922L123.945 6.97425L124.735 6.37445Z" fill="#0AADED"/>
<path d="M124.672 6.31127L239.374 132.093L238.71 132.851L124.008 7.06891L124.672 6.31127Z" fill="#0AADED"/>
<path d="M124.356 6.12199L251.118 6.97425L251.118 8.07906L124.324 7.22689L124.356 6.12199Z" fill="#0AADED"/>
<path d="M124.356 6.12199L251.118 6.97425L251.118 8.07906L124.324 7.22689L124.356 6.12199Z" fill="#0AADED"/>
<path d="M10.1738 177.434L11.1535 177.181L46.9181 297.373L45.9384 297.625L10.1738 177.434Z" fill="#0AADED"/>
<path d="M46.1912 296.994L230.936 258.967L231.41 259.977L46.6652 298.036L46.1912 296.994Z" fill="#0AADED"/>
<path d="M46.1912 296.994L123.262 302.121L123.767 303.131L46.6652 298.036L46.1912 296.994Z" fill="#0AADED"/>
<path d="M46.6336 297.025L185.43 359.92L184.988 360.867L46.1912 297.972L46.6336 297.025Z" fill="#0AADED"/>
<path d="M73.7702 227.399L74.8132 227.683L46.9497 297.657L45.9067 297.373L73.7702 227.399Z" fill="#0AADED"/>
<path d="M331.591 62.0961L251.118 7.51075M331.591 62.0961L239.058 132.472M331.591 62.0961L274.644 189.201M331.591 62.0961L152.337 70.9767M331.591 62.0961L367.513 178.318M251.118 7.51075L239.058 132.472M251.118 7.51075L274.644 189.201M251.118 7.51075L152.337 70.9767M251.118 7.51075L45.4327 61.5596M251.118 7.51075L124.324 6.69008M185.209 360.393L74.276 227.556M185.209 360.393L324.068 298.572M185.209 360.393L123.515 302.626M185.209 360.393L231.157 259.472M185.209 360.393L46.4124 297.499M74.276 227.556L239.058 132.472M74.276 227.556L123.515 302.626M74.276 227.556L274.644 189.201M74.276 227.556L231.157 259.472M74.276 227.556L152.337 70.9767M74.276 227.556L10.6479 177.308M74.276 227.556L46.4124 297.499M324.068 298.572L239.058 132.472M324.068 298.572L123.515 302.626M324.068 298.572L274.644 189.201M324.068 298.572L231.157 259.472M324.068 298.572L367.513 178.318M239.058 132.472L274.644 189.201M239.058 132.472L231.157 259.472M239.058 132.472L152.337 70.9767M239.058 132.472L367.513 178.318M239.058 132.472L45.4327 61.5596M239.058 132.472L124.324 6.69008M239.342 132.977L331.876 62.6013L331.338 61.6227L238.774 131.967L239.342 132.977ZM239.342 132.977L238.742 131.999L73.9915 227.051L74.5603 228.03L239.342 132.977ZM324.511 298.351L239.501 132.251L238.616 132.693L323.626 298.825L324.511 298.351ZM324.511 298.351L275.118 188.98L274.201 189.422L323.594 298.793L324.511 298.351ZM123.515 302.626L274.644 189.201M123.515 302.626L231.157 259.472M123.515 302.626L10.6479 177.308M123.515 302.626L46.4124 297.499M274.644 189.201L231.157 259.472M274.644 189.201L152.337 70.9767M274.644 189.201L367.513 178.318M275.086 189.548L332.065 62.4433L331.149 61.7488L274.201 188.853M275.086 189.548L274.201 188.853M275.086 189.548L231.6 259.82L230.715 259.125L274.201 188.853M231.157 259.472L152.337 70.9767M231.157 259.472L367.513 178.318M231.157 259.472L46.4124 297.499M230.936 258.967L123.293 302.121L123.767 303.131M230.936 258.967L231.41 259.977M230.936 258.967L46.1912 296.994M231.41 259.977L123.767 303.131M231.41 259.977L46.6652 298.036M123.767 303.131L123.262 302.121L46.1912 296.994M123.767 303.131L46.6652 298.036M152.337 70.9767L10.6479 177.308M152.337 70.9767L45.4327 61.5596M152.337 70.9767L124.324 6.69008M239.311 132.03L152.622 70.5344L152.084 71.4499L238.805 132.914L239.311 132.03ZM239.311 132.03L367.765 177.907L367.228 178.76L238.774 132.914L239.311 132.03ZM10.6479 177.308L45.4327 61.5596M10.6479 177.308L124.324 6.69008M10.6479 177.308L46.4124 297.499M45.4327 61.5596L124.324 6.69008M44.9586 61.244L45.9067 61.8754L11.1219 177.623M44.9586 61.244L10.2054 176.992L11.1219 177.623M44.9586 61.244L45.7757 61.7881L124.907 6.76923L124.356 6.12199M44.9586 61.244L124.356 6.12199M11.1219 177.623L124.798 7.00582L124.356 6.12199M11.1219 177.623L10.1738 176.992L124.356 6.12199M152.748 70.6924L45.8435 61.244L45.0218 61.8438L151.958 71.2922M152.748 70.6924L151.958 71.2922M152.748 70.6924L124.735 6.37445L123.945 6.97425L151.958 71.2922M239.374 132.093L45.7487 61.1492L45.1166 61.9384L238.71 132.851M239.374 132.093L238.71 132.851M239.374 132.093L124.672 6.31127L124.008 7.06891L238.71 132.851M251.118 6.97425L45.4327 60.9915V62.0964L251.15 8.07915L251.118 6.97425ZM251.118 6.97425L124.356 6.12199M251.118 6.97425L251.118 8.07906L124.324 7.22689L124.356 6.12199M46.1912 296.994L46.6652 298.036M251.276 7.00558L331.749 61.591L331.465 62.6012L250.96 8.01577L251.276 7.00558ZM73.8335 227.777L74.7184 227.304L185.651 360.141L184.767 360.646L73.8335 227.777ZM184.925 359.889L323.784 298.099L324.353 299.077L185.493 360.899L184.925 359.889ZM250.644 7.63696L251.624 7.41598L239.532 132.377L238.552 132.598L250.644 7.63696ZM123.072 302.847L123.989 302.405L185.651 360.173L184.735 360.615L123.072 302.847ZM73.6753 227.949L74.519 227.392L124.058 302.267L123.214 302.824L73.6753 227.949ZM123.451 302.058L324.005 298.036L324.132 299.14L123.609 303.163L123.451 302.058ZM274.328 188.727L274.991 189.674L123.862 303.1L123.199 302.153L274.328 188.727ZM238.616 132.725L239.469 132.219L275.086 188.948L274.233 189.453L238.616 132.725ZM74.1495 226.988L274.486 188.664L274.802 189.737L74.434 228.093L74.1495 226.988ZM250.644 7.70032L251.592 7.35306L275.118 189.043L274.17 189.359L250.644 7.70032ZM238.521 132.377L239.564 132.567L231.694 259.567L230.651 259.378L238.521 132.377ZM230.683 259.188L231.631 259.756L185.683 360.678L184.735 360.109L230.683 259.188ZM74.3392 226.988L231.22 258.936L231.125 260.009L74.2443 228.093L74.3392 226.988ZM231.283 258.967L324.195 298.067L323.91 299.077L231.031 259.977L231.283 258.967ZM151.863 71.166L152.811 70.8187L231.631 259.314L230.683 259.63L151.863 71.166ZM152.685 70.5976L274.991 188.822L274.328 189.579L152.021 71.3868L152.685 70.5976ZM152.306 70.4399L331.56 61.5596L331.654 62.6645L152.4 71.5448L152.306 70.4399ZM151.895 70.6924L152.811 71.2922L74.75 227.841L73.8018 227.241L151.895 70.6924ZM250.707 7.13193L251.561 7.88958L152.78 71.3553L151.926 70.6292L250.707 7.13193ZM152.021 70.5028L152.653 71.4815L10.9639 177.781L10.3318 176.834L152.021 70.5028ZM11.0271 176.961L123.894 302.279L123.135 302.974L10.2686 177.655L11.0271 176.961ZM10.9639 176.897L74.592 227.146L73.9599 227.935L10.3318 177.718L10.9639 176.897ZM230.999 258.936L367.323 177.781L367.671 178.886L231.347 260.009L230.999 258.936ZM274.802 188.696L367.639 177.813L367.355 178.854L274.517 189.706L274.802 188.696ZM331.086 62.0963H332.129L368.018 178.349L366.975 178.318L331.086 62.0963ZM367.007 178.065L367.987 178.602L324.543 298.856L323.563 298.32L367.007 178.065ZM10.1738 177.434L11.1535 177.181L46.9181 297.373L45.9384 297.625L10.1738 177.434ZM46.6336 297.025L185.43 359.92L184.988 360.867L46.1912 297.972L46.6336 297.025ZM73.7703 227.399L74.8132 227.683L46.9497 297.657L45.9067 297.373L73.7703 227.399Z" stroke="#0AADED" stroke-width="0.5"/>
</g>
<g filter="url(#filter0_d_88_4344)">
<circle cx="152.146" cy="71.216" r="5.63983" fill="white" fill-opacity="0.55"/>
<circle cx="152.146" cy="71.216" r="5.13983" stroke="#00A7D2"/>
</g>
<circle cx="152.146" cy="71.2158" r="2.56356" fill="#00A7D2"/>
<g filter="url(#filter1_d_88_4344)">
<circle cx="275.196" cy="189.14" r="5.63983" fill="white" fill-opacity="0.55"/>
<circle cx="275.196" cy="189.14" r="5.13983" stroke="#00A7D2"/>
</g>
<circle cx="275.196" cy="189.14" r="2.56356" fill="#00A7D2"/>
<g filter="url(#filter2_d_88_4344)">
<circle cx="75.2414" cy="228.107" r="5.63983" fill="white" fill-opacity="0.55"/>
<circle cx="75.2414" cy="228.107" r="5.13983" stroke="#00A7D2"/>
</g>
<circle cx="75.2413" cy="228.106" r="2.56356" fill="#00A7D2"/>
<g filter="url(#filter3_d_88_4344)">
<circle cx="46.5305" cy="296.81" r="5.63983" fill="white" fill-opacity="0.55"/>
<circle cx="46.5305" cy="296.81" r="5.13983" stroke="#00A7D2"/>
</g>
<circle cx="46.5304" cy="296.81" r="2.56356" fill="#00A7D2"/>
<g filter="url(#filter4_d_88_4344)">
<circle cx="123.435" cy="301.936" r="5.63983" fill="white" fill-opacity="0.55"/>
<circle cx="123.435" cy="301.936" r="5.13983" stroke="#00A7D2"/>
</g>
<circle cx="123.435" cy="301.936" r="2.56356" fill="#00A7D2"/>
<g filter="url(#filter5_d_88_4344)">
<circle cx="184.96" cy="359.361" r="5.63983" fill="white" fill-opacity="0.55"/>
<circle cx="184.96" cy="359.361" r="5.13983" stroke="#00A7D2"/>
</g>
<circle cx="184.96" cy="359.36" r="2.56356" fill="#00A7D2"/>
<g filter="url(#filter6_d_88_4344)">
<circle cx="323.394" cy="298.86" r="5.63983" fill="white" fill-opacity="0.55"/>
<circle cx="323.394" cy="298.86" r="5.13983" stroke="#00A7D2"/>
</g>
<circle cx="323.394" cy="298.859" r="2.56356" fill="#00A7D2"/>
<g filter="url(#filter7_d_88_4344)">
<circle cx="367.487" cy="177.86" r="5.63983" fill="white" fill-opacity="0.55"/>
<circle cx="367.487" cy="177.86" r="5.13983" stroke="#00A7D2"/>
</g>
<circle cx="367.487" cy="177.859" r="2.56356" fill="#00A7D2"/>
<g filter="url(#filter8_d_88_4344)">
<circle cx="239.312" cy="132.741" r="5.63983" fill="white" fill-opacity="0.55"/>
<circle cx="239.312" cy="132.741" r="5.13983" stroke="#00A7D2"/>
</g>
<circle cx="239.312" cy="132.741" r="2.56356" fill="#00A7D2"/>
<g filter="url(#filter9_d_88_4344)">
<circle cx="331.599" cy="61.9867" r="5.63983" fill="white" fill-opacity="0.55"/>
<circle cx="331.599" cy="61.9867" r="5.13983" stroke="#00A7D2"/>
</g>
<circle cx="331.599" cy="61.9866" r="2.56356" fill="#00A7D2"/>
<g filter="url(#filter10_d_88_4344)">
<circle cx="46.5305" cy="61.9865" r="5.63983" fill="white" fill-opacity="0.55"/>
<circle cx="46.5305" cy="61.9865" r="5.13983" stroke="#00A7D2"/>
</g>
<circle cx="46.5304" cy="61.9863" r="2.56356" fill="#00A7D2"/>
<g filter="url(#filter11_d_88_4344)">
<circle cx="124.46" cy="7.63983" r="5.63983" fill="white" fill-opacity="0.55"/>
<circle cx="124.46" cy="7.63983" r="5.13983" stroke="#00A7D2"/>
</g>
<circle cx="124.46" cy="7.63962" r="2.56356" fill="#00A7D2"/>
<g filter="url(#filter12_d_88_4344)">
<circle cx="250.589" cy="7.63983" r="5.63983" fill="white" fill-opacity="0.55"/>
<circle cx="250.589" cy="7.63983" r="5.13983" stroke="#00A7D2"/>
</g>
<circle cx="250.589" cy="7.63962" r="2.56356" fill="#00A7D2"/>
<g filter="url(#filter13_d_88_4344)">
<circle cx="10.6398" cy="176.834" r="5.63983" fill="white" fill-opacity="0.55"/>
<circle cx="10.6398" cy="176.834" r="5.13983" stroke="#00A7D2"/>
</g>
<circle cx="10.6397" cy="176.834" r="2.56356" fill="#00A7D2"/>
<g filter="url(#filter14_d_88_4344)">
<circle cx="231.107" cy="258.869" r="5.63983" fill="white" fill-opacity="0.55"/>
<circle cx="231.107" cy="258.869" r="5.13983" stroke="#00A7D2"/>
</g>
<circle cx="231.107" cy="258.869" r="2.56356" fill="#00A7D2"/>
<defs>
<filter id="filter0_d_88_4344" x="141.506" y="63.5762" width="21.2793" height="21.2797" filterUnits="userSpaceOnUse" color-interpolation-filters="sRGB">
<feFlood flood-opacity="0" result="BackgroundImageFix"/>
<feColorMatrix in="SourceAlpha" type="matrix" values="0 0 0 0 0 0 0 0 0 0 0 0 0 0 0 0 0 0 127 0" result="hardAlpha"/>
<feOffset dy="3"/>
<feGaussianBlur stdDeviation="2.5"/>
<feColorMatrix type="matrix" values="0 0 0 0 0 0 0 0 0 0 0 0 0 0 0 0 0 0 0.05 0"/>
<feBlend mode="normal" in2="BackgroundImageFix" result="effect1_dropShadow_88_4344"/>
<feBlend mode="normal" in="SourceGraphic" in2="effect1_dropShadow_88_4344" result="shape"/>
</filter>
<filter id="filter1_d_88_4344" x="264.557" y="181.5" width="21.2793" height="21.2797" filterUnits="userSpaceOnUse" color-interpolation-filters="sRGB">
<feFlood flood-opacity="0" result="BackgroundImageFix"/>
<feColorMatrix in="SourceAlpha" type="matrix" values="0 0 0 0 0 0 0 0 0 0 0 0 0 0 0 0 0 0 127 0" result="hardAlpha"/>
<feOffset dy="3"/>
<feGaussianBlur stdDeviation="2.5"/>
<feColorMatrix type="matrix" values="0 0 0 0 0 0 0 0 0 0 0 0 0 0 0 0 0 0 0.05 0"/>
<feBlend mode="normal" in2="BackgroundImageFix" result="effect1_dropShadow_88_4344"/>
<feBlend mode="normal" in="SourceGraphic" in2="effect1_dropShadow_88_4344" result="shape"/>
</filter>
<filter id="filter2_d_88_4344" x="64.6016" y="220.467" width="21.2793" height="21.2797" filterUnits="userSpaceOnUse" color-interpolation-filters="sRGB">
<feFlood flood-opacity="0" result="BackgroundImageFix"/>
<feColorMatrix in="SourceAlpha" type="matrix" values="0 0 0 0 0 0 0 0 0 0 0 0 0 0 0 0 0 0 127 0" result="hardAlpha"/>
<feOffset dy="3"/>
<feGaussianBlur stdDeviation="2.5"/>
<feColorMatrix type="matrix" values="0 0 0 0 0 0 0 0 0 0 0 0 0 0 0 0 0 0 0.05 0"/>
<feBlend mode="normal" in2="BackgroundImageFix" result="effect1_dropShadow_88_4344"/>
<feBlend mode="normal" in="SourceGraphic" in2="effect1_dropShadow_88_4344" result="shape"/>
</filter>
<filter id="filter3_d_88_4344" x="35.8906" y="289.17" width="21.2793" height="21.2797" filterUnits="userSpaceOnUse" color-interpolation-filters="sRGB">
<feFlood flood-opacity="0" result="BackgroundImageFix"/>
<feColorMatrix in="SourceAlpha" type="matrix" values="0 0 0 0 0 0 0 0 0 0 0 0 0 0 0 0 0 0 127 0" result="hardAlpha"/>
<feOffset dy="3"/>
<feGaussianBlur stdDeviation="2.5"/>
<feColorMatrix type="matrix" values="0 0 0 0 0 0 0 0 0 0 0 0 0 0 0 0 0 0 0.05 0"/>
<feBlend mode="normal" in2="BackgroundImageFix" result="effect1_dropShadow_88_4344"/>
<feBlend mode="normal" in="SourceGraphic" in2="effect1_dropShadow_88_4344" result="shape"/>
</filter>
<filter id="filter4_d_88_4344" x="112.795" y="294.296" width="21.2793" height="21.2797" filterUnits="userSpaceOnUse" color-interpolation-filters="sRGB">
<feFlood flood-opacity="0" result="BackgroundImageFix"/>
<feColorMatrix in="SourceAlpha" type="matrix" values="0 0 0 0 0 0 0 0 0 0 0 0 0 0 0 0 0 0 127 0" result="hardAlpha"/>
<feOffset dy="3"/>
<feGaussianBlur stdDeviation="2.5"/>
<feColorMatrix type="matrix" values="0 0 0 0 0 0 0 0 0 0 0 0 0 0 0 0 0 0 0.05 0"/>
<feBlend mode="normal" in2="BackgroundImageFix" result="effect1_dropShadow_88_4344"/>
<feBlend mode="normal" in="SourceGraphic" in2="effect1_dropShadow_88_4344" result="shape"/>
</filter>
<filter id="filter5_d_88_4344" x="174.32" y="351.721" width="21.2793" height="21.2797" filterUnits="userSpaceOnUse" color-interpolation-filters="sRGB">
<feFlood flood-opacity="0" result="BackgroundImageFix"/>
<feColorMatrix in="SourceAlpha" type="matrix" values="0 0 0 0 0 0 0 0 0 0 0 0 0 0 0 0 0 0 127 0" result="hardAlpha"/>
<feOffset dy="3"/>
<feGaussianBlur stdDeviation="2.5"/>
<feColorMatrix type="matrix" values="0 0 0 0 0 0 0 0 0 0 0 0 0 0 0 0 0 0 0.05 0"/>
<feBlend mode="normal" in2="BackgroundImageFix" result="effect1_dropShadow_88_4344"/>
<feBlend mode="normal" in="SourceGraphic" in2="effect1_dropShadow_88_4344" result="shape"/>
</filter>
<filter id="filter6_d_88_4344" x="312.754" y="291.22" width="21.2793" height="21.2797" filterUnits="userSpaceOnUse" color-interpolation-filters="sRGB">
<feFlood flood-opacity="0" result="BackgroundImageFix"/>
<feColorMatrix in="SourceAlpha" type="matrix" values="0 0 0 0 0 0 0 0 0 0 0 0 0 0 0 0 0 0 127 0" result="hardAlpha"/>
<feOffset dy="3"/>
<feGaussianBlur stdDeviation="2.5"/>
<feColorMatrix type="matrix" values="0 0 0 0 0 0 0 0 0 0 0 0 0 0 0 0 0 0 0.05 0"/>
<feBlend mode="normal" in2="BackgroundImageFix" result="effect1_dropShadow_88_4344"/>
<feBlend mode="normal" in="SourceGraphic" in2="effect1_dropShadow_88_4344" result="shape"/>
</filter>
<filter id="filter7_d_88_4344" x="356.848" y="170.22" width="21.2793" height="21.2797" filterUnits="userSpaceOnUse" color-interpolation-filters="sRGB">
<feFlood flood-opacity="0" result="BackgroundImageFix"/>
<feColorMatrix in="SourceAlpha" type="matrix" values="0 0 0 0 0 0 0 0 0 0 0 0 0 0 0 0 0 0 127 0" result="hardAlpha"/>
<feOffset dy="3"/>
<feGaussianBlur stdDeviation="2.5"/>
<feColorMatrix type="matrix" values="0 0 0 0 0 0 0 0 0 0 0 0 0 0 0 0 0 0 0.05 0"/>
<feBlend mode="normal" in2="BackgroundImageFix" result="effect1_dropShadow_88_4344"/>
<feBlend mode="normal" in="SourceGraphic" in2="effect1_dropShadow_88_4344" result="shape"/>
</filter>
<filter id="filter8_d_88_4344" x="228.672" y="125.102" width="21.2793" height="21.2797" filterUnits="userSpaceOnUse" color-interpolation-filters="sRGB">
<feFlood flood-opacity="0" result="BackgroundImageFix"/>
<feColorMatrix in="SourceAlpha" type="matrix" values="0 0 0 0 0 0 0 0 0 0 0 0 0 0 0 0 0 0 127 0" result="hardAlpha"/>
<feOffset dy="3"/>
<feGaussianBlur stdDeviation="2.5"/>
<feColorMatrix type="matrix" values="0 0 0 0 0 0 0 0 0 0 0 0 0 0 0 0 0 0 0.05 0"/>
<feBlend mode="normal" in2="BackgroundImageFix" result="effect1_dropShadow_88_4344"/>
<feBlend mode="normal" in="SourceGraphic" in2="effect1_dropShadow_88_4344" result="shape"/>
</filter>
<filter id="filter9_d_88_4344" x="320.959" y="54.3469" width="21.2793" height="21.2797" filterUnits="userSpaceOnUse" color-interpolation-filters="sRGB">
<feFlood flood-opacity="0" result="BackgroundImageFix"/>
<feColorMatrix in="SourceAlpha" type="matrix" values="0 0 0 0 0 0 0 0 0 0 0 0 0 0 0 0 0 0 127 0" result="hardAlpha"/>
<feOffset dy="3"/>
<feGaussianBlur stdDeviation="2.5"/>
<feColorMatrix type="matrix" values="0 0 0 0 0 0 0 0 0 0 0 0 0 0 0 0 0 0 0.05 0"/>
<feBlend mode="normal" in2="BackgroundImageFix" result="effect1_dropShadow_88_4344"/>
<feBlend mode="normal" in="SourceGraphic" in2="effect1_dropShadow_88_4344" result="shape"/>
</filter>
<filter id="filter10_d_88_4344" x="35.8906" y="54.3467" width="21.2793" height="21.2797" filterUnits="userSpaceOnUse" color-interpolation-filters="sRGB">
<feFlood flood-opacity="0" result="BackgroundImageFix"/>
<feColorMatrix in="SourceAlpha" type="matrix" values="0 0 0 0 0 0 0 0 0 0 0 0 0 0 0 0 0 0 127 0" result="hardAlpha"/>
<feOffset dy="3"/>
<feGaussianBlur stdDeviation="2.5"/>
<feColorMatrix type="matrix" values="0 0 0 0 0 0 0 0 0 0 0 0 0 0 0 0 0 0 0.05 0"/>
<feBlend mode="normal" in2="BackgroundImageFix" result="effect1_dropShadow_88_4344"/>
<feBlend mode="normal" in="SourceGraphic" in2="effect1_dropShadow_88_4344" result="shape"/>
</filter>
<filter id="filter11_d_88_4344" x="113.82" y="0" width="21.2793" height="21.2797" filterUnits="userSpaceOnUse" color-interpolation-filters="sRGB">
<feFlood flood-opacity="0" result="BackgroundImageFix"/>
<feColorMatrix in="SourceAlpha" type="matrix" values="0 0 0 0 0 0 0 0 0 0 0 0 0 0 0 0 0 0 127 0" result="hardAlpha"/>
<feOffset dy="3"/>
<feGaussianBlur stdDeviation="2.5"/>
<feColorMatrix type="matrix" values="0 0 0 0 0 0 0 0 0 0 0 0 0 0 0 0 0 0 0.05 0"/>
<feBlend mode="normal" in2="BackgroundImageFix" result="effect1_dropShadow_88_4344"/>
<feBlend mode="normal" in="SourceGraphic" in2="effect1_dropShadow_88_4344" result="shape"/>
</filter>
<filter id="filter12_d_88_4344" x="239.949" y="0" width="21.2793" height="21.2797" filterUnits="userSpaceOnUse" color-interpolation-filters="sRGB">
<feFlood flood-opacity="0" result="BackgroundImageFix"/>
<feColorMatrix in="SourceAlpha" type="matrix" values="0 0 0 0 0 0 0 0 0 0 0 0 0 0 0 0 0 0 127 0" result="hardAlpha"/>
<feOffset dy="3"/>
<feGaussianBlur stdDeviation="2.5"/>
<feColorMatrix type="matrix" values="0 0 0 0 0 0 0 0 0 0 0 0 0 0 0 0 0 0 0.05 0"/>
<feBlend mode="normal" in2="BackgroundImageFix" result="effect1_dropShadow_88_4344"/>
<feBlend mode="normal" in="SourceGraphic" in2="effect1_dropShadow_88_4344" result="shape"/>
</filter>
<filter id="filter13_d_88_4344" x="0" y="169.194" width="21.2793" height="21.2797" filterUnits="userSpaceOnUse" color-interpolation-filters="sRGB">
<feFlood flood-opacity="0" result="BackgroundImageFix"/>
<feColorMatrix in="SourceAlpha" type="matrix" values="0 0 0 0 0 0 0 0 0 0 0 0 0 0 0 0 0 0 127 0" result="hardAlpha"/>
<feOffset dy="3"/>
<feGaussianBlur stdDeviation="2.5"/>
<feColorMatrix type="matrix" values="0 0 0 0 0 0 0 0 0 0 0 0 0 0 0 0 0 0 0.05 0"/>
<feBlend mode="normal" in2="BackgroundImageFix" result="effect1_dropShadow_88_4344"/>
<feBlend mode="normal" in="SourceGraphic" in2="effect1_dropShadow_88_4344" result="shape"/>
</filter>
<filter id="filter14_d_88_4344" x="220.467" y="251.229" width="21.2793" height="21.2797" filterUnits="userSpaceOnUse" color-interpolation-filters="sRGB">
<feFlood flood-opacity="0" result="BackgroundImageFix"/>
<feColorMatrix in="SourceAlpha" type="matrix" values="0 0 0 0 0 0 0 0 0 0 0 0 0 0 0 0 0 0 127 0" result="hardAlpha"/>
<feOffset dy="3"/>
<feGaussianBlur stdDeviation="2.5"/>
<feColorMatrix type="matrix" values="0 0 0 0 0 0 0 0 0 0 0 0 0 0 0 0 0 0 0.05 0"/>
<feBlend mode="normal" in2="BackgroundImageFix" result="effect1_dropShadow_88_4344"/>
<feBlend mode="normal" in="SourceGraphic" in2="effect1_dropShadow_88_4344" result="shape"/>
</filter>
</defs>
</svg>
