<svg width="18" height="15" viewBox="0 0 18 15" fill="none" xmlns="http://www.w3.org/2000/svg">
<path fill-rule="evenodd" clip-rule="evenodd" d="M5.57744 0H12.4226C14.1963 0 14.8413 0.180556 15.4902 0.528297C16.1293 0.870797 16.6309 1.3734 16.9728 2.01382C17.3198 2.66404 17.5 3.3103 17.5 5.08756V9.91244C17.5 11.6897 17.3198 12.336 16.9728 12.9862C16.6309 13.6266 16.1293 14.1292 15.4902 14.4717C14.8413 14.8194 14.1963 15 12.4226 15H5.57744C3.80372 15 3.15874 14.8194 2.50981 14.4717C1.87067 14.1292 1.36906 13.6266 1.02725 12.9862C0.680197 12.336 0.5 11.6897 0.5 9.91244V5.08756C0.5 3.3103 0.680197 2.66404 1.02725 2.01382C1.36906 1.3734 1.87067 0.870797 2.50981 0.528297C3.15874 0.180556 3.80372 0 5.57744 0ZM2 9.91244V5.08756C2 3.48996 2.1558 3.0912 2.3294 2.76007L6.79301 7.22368C7.07257 7.50326 7.31375 7.74445 7.52863 7.92687C7.75542 8.11941 8.00178 8.29012 8.30469 8.38854C8.75658 8.53537 9.24336 8.53537 9.69526 8.38854C9.99817 8.29012 10.2445 8.11941 10.4713 7.92688C10.6862 7.74446 10.9274 7.50327 11.2069 7.22369L15.6706 2.76005C15.8442 3.09119 16 3.48993 16 5.08756V9.91244C16 11.5747 15.8313 11.9391 15.6495 12.2799C15.4471 12.6591 15.1592 12.9473 14.7817 13.1496C14.4429 13.3311 14.0807 13.5 12.4226 13.5H5.57744C3.91934 13.5 3.55712 13.3311 3.21831 13.1496C2.84076 12.9473 2.55295 12.6591 2.35055 12.2799C2.16867 11.9391 2 11.5747 2 9.91244ZM12.4226 1.5H5.57744C4.25129 1.5 3.75409 1.60802 3.43482 1.74417L7.83325 6.1426C8.13901 6.44836 8.33685 6.64538 8.49939 6.78336C8.65524 6.91566 8.72863 6.9491 8.76821 6.96196C8.91885 7.0109 9.0811 7.0109 9.23174 6.96196C9.27132 6.9491 9.34472 6.91566 9.50056 6.78336C9.6631 6.64538 9.86094 6.44836 10.1667 6.1426L14.5652 1.74416C14.2459 1.60802 13.7487 1.5 12.4226 1.5Z" fill="white"/>
</svg>
