<svg width="16" height="20" viewBox="0 0 16 20" fill="none" xmlns="http://www.w3.org/2000/svg">
<path d="M5 5.99998C2 5.99998 1 8.99998 1 11.5C1 14.5 3 19 5 19C6.088 18.954 6.679 18.5 8 18.5C9.312 18.5 9.5 19 11 19C12.5 19 15 16 15 14C14.972 13.99 12.528 13.597 12.5 11C12.481 8.82998 14.916 8.04598 15 7.99998C13.977 6.50798 12.049 6.03698 11.5 5.99998C10.067 5.88898 8.67 6.99998 8 6.99998C7.32 6.99998 6.1 5.99998 5 5.99998Z" stroke="white" stroke-width="2" stroke-linecap="round" stroke-linejoin="round"/>
<path d="M8 3C8.53043 3 9.03914 2.78929 9.41421 2.41421C9.78929 2.03914 10 1.53043 10 1C9.46957 1 8.96086 1.21071 8.58579 1.58579C8.21071 1.96086 8 2.46957 8 3Z" stroke="white" stroke-width="2" stroke-linecap="round" stroke-linejoin="round"/>
</svg>
