<svg width="38" height="38" viewBox="0 0 38 38" fill="none" xmlns="http://www.w3.org/2000/svg">
<path d="M19.0008 33.25C26.6934 33.25 32.9294 26.8701 32.9294 19C32.9294 11.1299 26.6934 4.75 19.0008 4.75C11.3083 4.75 5.07227 11.1299 5.07227 19C5.07227 26.8701 11.3083 33.25 19.0008 33.25Z" fill="#22AA8C"/>
<path fill-rule="evenodd" clip-rule="evenodd" d="M16.8245 19L21.3513 23.7203L24.2241 20.7812C24.7464 20.2469 25.5299 20.2469 25.9651 20.7812C26.4874 21.3156 26.4874 22.2062 25.9651 22.7406L22.2218 26.6593C21.6995 27.1937 20.916 27.1937 20.3937 26.6593L14.9964 20.9594V24.3437C14.9964 25.0562 14.387 25.6797 13.6906 25.6797C12.9941 25.6797 12.3848 25.0562 12.3848 24.3437V13.6562C12.3848 12.9437 12.9941 12.3203 13.6906 12.3203C14.387 12.3203 14.9964 12.9437 14.9964 13.6562V17.0406L20.3937 11.3406C20.916 10.8062 21.6995 10.8062 22.2218 11.3406L25.9651 15.2594C26.4874 15.7937 26.4874 16.6844 25.9651 17.2187C25.4428 17.7531 24.6593 17.7531 24.2241 17.2187L21.3513 14.1906L16.8245 19ZM21.3513 17.664C22.0477 17.664 22.6571 18.2875 22.6571 19C22.6571 19.7125 22.0477 20.3359 21.3513 20.3359C20.6549 20.3359 20.0455 19.7125 20.0455 19C20.0455 18.2875 20.6549 17.664 21.3513 17.664Z" fill="black"/>
</svg>
