<svg width="370" height="309" viewBox="0 0 370 309" fill="none" xmlns="http://www.w3.org/2000/svg">
<g opacity="0.08">
<path d="M-62.2332 188.869L-16.1574 240.074L40.915 216.08L103.775 152.506L155.471 172.193L202.704 215.483L264.479 159.33L315.691 175.41L357.499 55.9998L387.499 25.9998" stroke="#EF7BE3"/>
<circle opacity="0.2" cx="40.9164" cy="216.08" r="6" transform="rotate(8.31942 40.9164 216.08)" fill="#EF7BE3"/>
<circle cx="40.9162" cy="216.08" r="3" transform="rotate(8.31942 40.9162 216.08)" fill="#EF7BE3"/>
<circle opacity="0.2" cx="103.776" cy="152.506" r="6" transform="rotate(8.31942 103.776 152.506)" fill="#EF7BE3"/>
<circle cx="103.776" cy="152.506" r="3" transform="rotate(8.31942 103.776 152.506)" fill="#EF7BE3"/>
<circle opacity="0.2" cx="155.471" cy="172.193" r="6" transform="rotate(8.31942 155.471 172.193)" fill="#EF7BE3"/>
<circle cx="155.471" cy="172.193" r="3" transform="rotate(8.31942 155.471 172.193)" fill="#EF7BE3"/>
<circle opacity="0.2" cx="202.705" cy="215.483" r="6" transform="rotate(8.31942 202.705 215.483)" fill="#EF7BE3"/>
<circle cx="202.705" cy="215.483" r="3" transform="rotate(8.31942 202.705 215.483)" fill="#EF7BE3"/>
<circle opacity="0.2" cx="264.407" cy="159.825" r="6" transform="rotate(8.31942 264.407 159.825)" fill="#EF7BE3"/>
<circle cx="264.406" cy="159.825" r="3" transform="rotate(8.31942 264.406 159.825)" fill="#EF7BE3"/>
<circle opacity="0.2" cx="316.682" cy="175.554" r="6" transform="rotate(8.31942 316.682 175.554)" fill="#EF7BE3"/>
<circle cx="316.682" cy="175.554" r="3" transform="rotate(8.31942 316.682 175.554)" fill="#EF7BE3"/>
<circle opacity="0.2" cx="358.805" cy="54.805" r="6" transform="rotate(8.31942 358.805 54.805)" fill="#EF7BE3"/>
<circle cx="358.805" cy="54.805" r="3" transform="rotate(8.31942 358.805 54.805)" fill="#EF7BE3"/>
</g>
</svg>
