<svg width="126" height="52" viewBox="0 0 126 52" fill="none" xmlns="http://www.w3.org/2000/svg">
<path fill-rule="evenodd" clip-rule="evenodd" d="M34.3443 27.8901H17.2551C16.1529 27.8901 15.2598 26.9965 15.2598 25.8944C15.2598 24.7923 16.1529 23.8992 17.2551 23.8992H34.3443C35.4464 23.8992 36.3399 24.7923 36.3399 25.8944C36.3399 26.9965 35.4462 27.8901 34.3443 27.8901Z" fill="white"/>
<path fill-rule="evenodd" clip-rule="evenodd" d="M37.6969 21.1448H21.9054C20.8036 21.1448 19.9102 20.2514 19.9102 19.1497C19.9102 18.0476 20.8036 17.1545 21.9054 17.1545L37.6969 17.1543C38.7988 17.1543 39.6926 18.0476 39.6926 19.1497C39.6926 20.2514 38.7988 21.1448 37.6969 21.1448Z" fill="white"/>
<path fill-rule="evenodd" clip-rule="evenodd" d="M21.9074 21.1454C21.2181 21.1454 20.5475 20.7876 20.1778 20.1475L12.1718 6.28179C11.621 5.3273 11.9482 4.1071 12.9021 3.55563C13.8563 3.00665 15.0769 3.33248 15.6282 4.28616L23.6341 18.1519C24.1849 19.1062 23.8577 20.3266 22.9036 20.8779C22.5895 21.059 22.2462 21.1454 21.9074 21.1454Z" fill="white"/>
<path fill-rule="evenodd" clip-rule="evenodd" d="M29.6934 34.6358H13.9016C12.7996 34.6358 11.9062 33.7421 11.9062 32.6402C11.9062 31.5383 12.7996 30.6445 13.9016 30.6445H29.6934C30.7955 30.6445 31.689 31.5383 31.689 32.6402C31.689 33.7421 30.7955 34.6358 29.6934 34.6358Z" fill="white"/>
<path fill-rule="evenodd" clip-rule="evenodd" d="M37.6999 48.5016C37.0099 48.5016 36.3397 48.1443 35.9699 47.5035L27.9647 33.6381C27.4141 32.6839 27.7407 31.4638 28.6954 30.9122C29.6517 30.3611 30.8704 30.6883 31.421 31.6433L39.4262 45.5086C39.9769 46.4627 39.6503 47.6831 38.6954 48.2343C38.3814 48.4159 38.0382 48.5016 37.6999 48.5016Z" fill="white"/>
<mask id="mask0_113_5763" style="mask-type:alpha" maskUnits="userSpaceOnUse" x="11" y="0" width="41" height="40">
<path d="M11.9062 0.116211H51.6014V39.7883H11.9062V0.116211Z" fill="white"/>
</mask>
<g mask="url(#mask0_113_5763)">
<path fill-rule="evenodd" clip-rule="evenodd" d="M46.4048 39.7883C46.0664 39.7883 45.7235 39.7023 45.4092 39.5208C44.4544 38.9695 44.128 37.7494 44.6785 36.7953C47.5906 31.7522 48.3638 25.8783 46.8563 20.2532C45.3495 14.6289 41.7418 9.92771 36.6996 7.01658C29.9752 3.13478 21.6223 3.13543 14.8998 7.01658C13.9455 7.56717 12.7255 7.24038 12.174 6.28621C11.6228 5.33164 11.95 4.11128 12.9042 3.56021C16.8812 1.26432 21.3404 0.116211 25.7996 0.116211C30.2588 0.116211 34.7177 1.26432 38.6946 3.56021C44.6607 7.00485 48.9282 12.5663 50.7114 19.2205C52.4945 25.875 51.5797 32.8249 48.1348 38.7903C47.7651 39.4309 47.0941 39.7883 46.4048 39.7883Z" fill="white"/>
</g>
<mask id="mask1_113_5763" style="mask-type:alpha" maskUnits="userSpaceOnUse" x="0" y="12" width="40" height="40">
<path d="M0 12.002H39.6947V51.6747H0V12.002Z" fill="white"/>
</mask>
<g mask="url(#mask1_113_5763)">
<path fill-rule="evenodd" clip-rule="evenodd" d="M25.802 51.6747C21.3425 51.6747 16.8837 50.5267 12.9062 48.2301C6.94056 44.7852 2.67298 39.2237 0.890062 32.5695C-0.893266 25.9154 0.0220641 18.9653 3.46638 12.9997C4.01835 12.0458 5.23871 11.7185 6.19247 12.2697C7.14664 12.8206 7.47383 14.0407 6.923 14.9951C4.01123 20.0379 3.23757 25.9127 4.74467 31.537C6.25178 37.1616 9.85905 41.8624 14.9018 44.7735C21.6254 48.6561 29.9773 48.6561 36.7016 44.7742C37.6572 44.2228 38.8765 44.5501 39.4272 45.5049C39.9779 46.459 39.6514 47.6792 38.6967 48.2305C34.7197 50.5259 30.2604 51.6747 25.802 51.6747Z" fill="white"/>
</g>
<path fill-rule="evenodd" clip-rule="evenodd" d="M68.5372 18.129H82.1787C82.7126 18.129 82.9796 18.4445 82.9796 19.0756C82.9796 19.6908 82.7126 19.998 82.1787 19.998H68.5372V22.9251C68.5372 24.2586 69.7911 24.9254 72.2995 24.9254H82.1787C82.7449 24.9254 83.0282 25.2208 83.0282 25.8118C83.0282 26.4344 82.7449 26.7459 82.1787 26.7459H72.2268C68.2133 26.7459 66.207 25.5 66.207 23.0078V15.0706C66.207 12.5303 68.2862 11.2598 72.4452 11.2598H75.1395C75.6735 11.2598 75.9405 11.5673 75.9405 12.1821C75.9405 12.7809 75.6735 13.0802 75.1395 13.0802H73.3191C70.1309 13.0802 68.5372 13.7439 68.5372 15.0706V18.129Z" fill="white"/>
<path fill-rule="evenodd" clip-rule="evenodd" d="M104.241 25.3138C104.241 25.8318 104.1 26.2202 103.817 26.4789C103.533 26.7379 103.206 26.8672 102.834 26.8672C102.672 26.8672 102.498 26.8346 102.312 26.7702C102.126 26.7057 101.943 26.5843 101.766 26.4061L88.0756 14.1725V25.8721C88.0756 26.5358 87.6953 26.8672 86.9349 26.8672C86.1904 26.8672 85.8184 26.5358 85.8184 25.8721V12.5948C85.8184 12.1093 85.964 11.7574 86.2552 11.5389C86.5465 11.3205 86.87 11.2112 87.2261 11.2112C87.4526 11.2112 87.6631 11.2397 87.8573 11.2962C88.0514 11.3531 88.2372 11.4703 88.4155 11.6482L101.984 23.639V12.0851C101.984 11.454 102.372 11.1384 103.149 11.1384C103.877 11.1384 104.241 11.454 104.241 12.0851V25.3138Z" fill="white"/>
<path fill-rule="evenodd" clip-rule="evenodd" d="M123.271 15.1233C123.271 13.7613 121.815 13.0802 118.902 13.0802H113.756C110.908 13.0802 109.484 13.7613 109.484 15.1233V22.7848C109.484 24.2119 110.908 24.9253 113.756 24.9253H119.922C122.155 24.9253 123.271 24.2203 123.271 22.8094V15.1233ZM125.602 22.7204C125.602 24.4687 124.67 25.6664 122.806 26.3138L123.975 26.9676C124.105 27.0485 124.214 27.1736 124.303 27.3435C124.392 27.5126 124.436 27.6621 124.436 27.7915C124.436 28.066 124.331 28.292 124.121 28.47C123.911 28.6471 123.668 28.7362 123.393 28.7362C123.231 28.7362 123.045 28.6793 122.835 28.5662L119.606 26.673H113.101C109.136 26.673 107.154 25.3543 107.154 22.7166V15.1676C107.154 12.5625 109.131 11.2598 113.085 11.2598H119.55C123.584 11.2598 125.602 12.5549 125.602 15.1446V22.7204Z" fill="white"/>
<path fill-rule="evenodd" clip-rule="evenodd" d="M67.1644 37.4298H72.6664C72.8818 37.4298 72.9894 37.557 72.9894 37.8117C72.9894 38.0597 72.8818 38.1836 72.6664 38.1836H67.1644V39.3642C67.1644 39.9021 67.6701 40.171 68.6819 40.171H72.6664C72.8947 40.171 73.009 40.2902 73.009 40.5285C73.009 40.7797 72.8947 40.9052 72.6664 40.9052H68.6525C67.0337 40.9052 66.2246 40.4027 66.2246 39.3976V36.1962C66.2246 35.1717 67.0631 34.6592 68.7405 34.6592H69.8273C70.0427 34.6592 70.1503 34.7833 70.1503 35.0312C70.1503 35.2728 70.0427 35.3934 69.8273 35.3934H69.0931C67.8072 35.3934 67.1644 35.6612 67.1644 36.1962V37.4298Z" fill="white"/>
<path fill-rule="evenodd" clip-rule="evenodd" d="M81.5653 40.3277C81.5653 40.5367 81.5081 40.6934 81.3941 40.7977C81.2798 40.9022 81.1477 40.9543 80.9975 40.9543C80.9323 40.9543 80.862 40.9411 80.7871 40.9151C80.712 40.8891 80.6385 40.8402 80.5667 40.7683L75.0452 35.8341V40.5529C75.0452 40.8206 74.8918 40.9543 74.585 40.9543C74.2848 40.9543 74.1348 40.8206 74.1348 40.5529V35.1978C74.1348 35.002 74.1934 34.86 74.311 34.7718C74.4284 34.6837 74.5589 34.6397 74.7026 34.6397C74.7939 34.6397 74.8787 34.6512 74.9571 34.6739C75.0354 34.6969 75.1105 34.7442 75.1823 34.8159L80.6549 39.6522V34.9922C80.6549 34.7376 80.8116 34.6104 81.1248 34.6104C81.4186 34.6104 81.5653 34.7376 81.5653 34.9922V40.3277Z" fill="white"/>
<path fill-rule="evenodd" clip-rule="evenodd" d="M83.68 37.4295H89.182C89.3974 37.4295 89.505 37.5568 89.505 37.8114C89.505 38.0595 89.3974 38.1834 89.182 38.1834H83.68V39.364C83.68 39.9019 84.1857 40.1707 85.1975 40.1707H89.182C89.4103 40.1707 89.5246 40.29 89.5246 40.5283C89.5246 40.7794 89.4103 40.905 89.182 40.905H85.1682C83.5493 40.905 82.7402 40.4025 82.7402 39.3973V36.196C82.7402 35.1714 83.5787 34.6589 85.2561 34.6589H86.3429C86.5583 34.6589 86.6659 34.7831 86.6659 35.031C86.6659 35.2726 86.5583 35.3932 86.3429 35.3932H85.6087C84.3228 35.3932 83.68 35.6609 83.68 36.196V37.4295Z" fill="white"/>
<path fill-rule="evenodd" clip-rule="evenodd" d="M93.0492 35.3932C92.0048 35.3932 91.4828 35.6386 91.4828 36.129V39.3174C91.4828 39.8863 92.0569 40.1707 93.2058 40.1707H96.6323C96.8607 40.1707 96.975 40.2899 96.975 40.5283C96.975 40.7794 96.8607 40.905 96.6323 40.905H93.0785C91.4011 40.905 90.5625 40.383 90.5625 39.3387V36.1274C90.5625 35.1485 91.3815 34.6589 93.0198 34.6589H96.6323C96.8607 34.6589 96.975 34.7798 96.975 35.0212C96.975 35.2693 96.8607 35.3932 96.6323 35.3932H93.0492Z" fill="white"/>
<path fill-rule="evenodd" clip-rule="evenodd" d="M105.433 39.1823C105.433 40.3311 104.405 40.9054 102.349 40.9054H100.949C99.0102 40.9054 98.041 40.3311 98.041 39.1823V34.9922C98.041 34.7376 98.1926 34.6104 98.4961 34.6104C98.8191 34.6104 98.9808 34.7379 98.9808 34.9928V39.1217C98.9808 39.8214 99.5931 40.1711 100.818 40.1711H102.509C103.844 40.1711 104.512 39.8214 104.512 39.1217V34.9928C104.512 34.7379 104.665 34.6104 104.972 34.6104C105.279 34.6104 105.433 34.7376 105.433 34.9922V39.1823Z" fill="white"/>
<path fill-rule="evenodd" clip-rule="evenodd" d="M113.999 39.1823C113.999 40.3311 112.971 40.9054 110.915 40.9054H109.515C107.577 40.9054 106.607 40.3311 106.607 39.1823V34.9922C106.607 34.7376 106.759 34.6104 107.063 34.6104C107.386 34.6104 107.547 34.7379 107.547 34.9928V39.1217C107.547 39.8214 108.16 40.1711 109.385 40.1711H111.075C112.411 40.1711 113.079 39.8214 113.079 39.1217V34.9928C113.079 34.7379 113.232 34.6104 113.539 34.6104C113.846 34.6104 113.999 34.7376 113.999 34.9922V39.1823Z" fill="white"/>
<path fill-rule="evenodd" clip-rule="evenodd" d="M125.377 40.5529C125.377 40.8206 125.217 40.9543 124.897 40.9543C124.604 40.9543 124.457 40.8206 124.457 40.5529V36.0005L120.962 40.6214C120.798 40.8434 120.59 40.9543 120.335 40.9543C120.061 40.9543 119.842 40.8434 119.679 40.6214L116.125 36.0102V40.5529C116.125 40.8206 115.975 40.9543 115.675 40.9543C115.368 40.9543 115.215 40.8206 115.215 40.5529V35.139C115.215 34.7865 115.388 34.6104 115.734 34.6104C115.975 34.6104 116.181 34.718 116.35 34.9334L120.345 40.034L124.261 34.8844C124.404 34.7019 124.594 34.6104 124.829 34.6104C125.194 34.6104 125.377 34.7931 125.377 35.1586V40.5529Z" fill="white"/>
</svg>
