<svg width="48" height="48" viewBox="0 0 48 48" fill="none" xmlns="http://www.w3.org/2000/svg">
<path d="M18.8906 28.6406C17.5969 28.6406 16.5563 27.6 16.5563 26.3344C16.5563 25.0406 17.5969 24 18.8906 24C20.1656 24 21.1969 25.0406 21.1969 26.3344C21.1969 27.6094 20.1562 28.6406 18.8906 28.6406ZM47.25 24C47.25 36.8438 36.8438 47.25 24 47.25C11.1562 47.25 0.75 36.8438 0.75 24C0.75 11.1562 11.1562 0.75 24 0.75C36.8438 0.75 47.25 11.1562 47.25 24ZM34.8469 20.1375C33.9656 20.1375 33.1875 20.5031 32.6156 21.075C30.5156 19.6219 27.6844 18.6844 24.5437 18.5812L26.175 11.2406L31.3688 12.4125C31.3688 13.6875 32.4094 14.7188 33.675 14.7188C34.9688 14.7188 36.0094 13.6594 36.0094 12.3844C36.0094 11.1094 34.9688 10.05 33.675 10.05C32.7656 10.05 31.9875 10.5938 31.6031 11.3438L25.8656 10.0688C25.5844 9.99375 25.2938 10.2 25.2188 10.4813L23.4281 18.5812C20.3156 18.7125 17.5125 19.6406 15.4125 21.0938C14.8406 20.4937 14.0344 20.1375 13.1531 20.1375C9.88125 20.1375 8.8125 24.5344 11.8031 26.025C11.7 26.4938 11.6437 26.9813 11.6437 27.4781C11.6437 32.4094 17.1938 36.4031 24.0188 36.4031C30.8719 36.4031 36.4219 32.4094 36.4219 27.4781C36.4219 26.9813 36.3656 26.4656 36.2438 25.9969C39.1781 24.4969 38.1 20.1375 34.8469 20.1375ZM28.3875 31.0312C26.6812 32.7375 21.2531 32.7094 19.6125 31.0312C19.4062 30.825 19.0406 30.825 18.8344 31.0312C18.6 31.2656 18.6 31.6313 18.8344 31.8375C20.9719 33.975 27.0188 33.975 29.1656 31.8375C29.4 31.6313 29.4 31.2656 29.1656 31.0312C28.9594 30.825 28.5937 30.825 28.3875 31.0312ZM29.1094 24C27.8344 24 26.8031 25.0406 26.8031 26.3344C26.8031 27.6094 27.8438 28.6406 29.1094 28.6406C30.4031 28.6406 31.4437 27.6 31.4437 26.3344C31.4437 25.0406 30.4125 24 29.1094 24Z" fill="#101425"/>
</svg>
