<svg width="46" height="46" viewBox="0 0 46 46" fill="none" xmlns="http://www.w3.org/2000/svg">
<path d="M23 0C10.2974 0 0 10.2974 0 23C0 35.7026 10.2974 46 23 46C35.7026 46 46 35.7026 46 23C46 10.2974 35.7026 0 23 0ZM33.6609 15.6419C33.3148 19.2787 31.8171 28.1043 31.0548 32.1777C30.7325 33.9013 30.0975 34.4792 29.483 34.5357C28.1475 34.6587 27.1331 33.6531 25.8395 32.805C23.8152 31.4781 22.6716 30.652 20.7066 29.3572C18.4358 27.8608 19.9079 27.0386 21.202 25.6939C21.5407 25.3421 27.4256 19.9893 27.5395 19.5037C27.5537 19.443 27.5674 19.2162 27.4325 19.0971C27.2977 18.9781 27.0996 19.0184 26.9563 19.0508C26.7533 19.0969 23.5194 21.2343 17.2547 25.4631C16.3369 26.0934 15.5055 26.4005 14.7605 26.3844C13.9393 26.3667 12.3596 25.9202 11.1852 25.5383C9.74486 25.0702 8.60005 24.8227 8.69975 24.0275C8.75169 23.6132 9.32205 23.1897 10.4108 22.7569C17.1158 19.8357 21.5869 17.9097 23.8239 16.9791C30.2112 14.3223 31.5385 13.8608 32.4036 13.8454C32.5939 13.8423 33.0193 13.8894 33.2948 14.113C33.4781 14.2723 33.5949 14.4946 33.6222 14.7359C33.6689 15.0355 33.6819 15.3394 33.6609 15.6419Z" fill="#101425"/>
</svg>
