<svg width="260" height="243" viewBox="0 0 260 243" fill="none" xmlns="http://www.w3.org/2000/svg">
<g opacity="0.07" clip-path="url(#clip0_113_5534)">
<path d="M129.4 141.49L154.953 165.584L154.581 165.702C115.443 176.627 89.7891 153.752 89.7891 153.752L129.4 141.49Z" fill="#EEA2D0"/>
<path d="M154.579 165.701L103.34 182.295C77.789 174.422 88.9229 154.025 88.9229 154.025L89.7878 153.752C89.7878 153.752 115.442 176.627 154.579 165.701Z" fill="#EB82C2"/>
<path d="M80.7711 38.8933L109.292 65.6861L103.915 88.7485C103.915 88.7485 64.5182 98.6817 43.9508 201.347L43.4883 201.493L80.7711 38.8933Z" fill="#9E2B48"/>
<path d="M103.915 88.748L88.9662 153.004C88.1761 153.165 55.0562 160.383 43.9711 201.34C64.5183 98.6813 103.915 88.748 103.915 88.748Z" fill="#CA3A5D"/>
<path d="M103.341 182.296L80.4372 189.772L43.9842 201.314C55.0597 160.327 88.1893 153.139 88.9793 152.979L88.733 154.053L88.9442 153.986C88.9442 153.986 77.7898 174.422 103.341 182.296Z" fill="#E74A99"/>
<path d="M174.383 168.488C174.465 167.98 180.314 134.458 150.998 106.271L191.659 142.262C198.155 168.405 175.057 169.114 175.057 169.114L174.383 168.488Z" fill="#EB82C2"/>
<path d="M150.987 106.274C180.303 134.461 174.454 167.983 174.372 168.491L143.401 140.358L150.68 106.002L150.971 106.257L150.987 106.274Z" fill="#EEA2D0"/>
<path d="M238.587 184.138C197.495 195.426 174.159 169.599 174.159 169.599L175.165 169.281L174.996 169.133C174.996 169.133 198.095 168.424 191.599 142.281L209.907 158.381L238.587 184.138Z" fill="#E74A99"/>
<path d="M174.159 169.6C174.159 169.6 197.495 195.426 238.587 184.138C140.599 218.3 111.744 189.161 111.744 189.161L174.159 169.6Z" fill="#CA3A5D"/>
<path d="M111.757 189.168C111.757 189.168 140.612 218.307 238.6 184.145L238.96 184.479L81.3246 234.504L89.3332 196.201L111.757 189.168Z" fill="#9E2B48"/>
<path d="M134.326 130.246L101.141 140.754L101.219 140.371C110.684 100.833 142.426 89.473 142.913 89.2966L134.326 130.246Z" fill="#EEA2D0"/>
<path d="M101.215 140.36L111.675 87.0517C130.873 68.5019 143.082 88.4025 143.082 88.4025L142.888 89.2924C142.422 89.4624 110.68 100.823 101.215 140.36Z" fill="#EB82C2"/>
<path d="M246.445 138.338L209.512 150.144L192.229 133.999C192.229 133.999 202.704 94.3665 124.033 25.3406L124.126 24.8635L246.445 138.338Z" fill="#9E2B48"/>
<path d="M192.229 133.999L143.962 88.9422C143.962 88.9422 154.409 55.7888 124.027 25.3538C202.704 94.3663 192.229 133.999 192.229 133.999Z" fill="#CA3A5D"/>
<path d="M111.675 87.0522L116.364 63.1779L124.026 25.3535C154.409 55.7886 143.962 88.942 143.962 88.942L143.142 88.1715L143.103 88.3966C143.103 88.3966 130.873 68.5023 111.675 87.0522Z" fill="#E74A99"/>
</g>
<defs>
<clipPath id="clip0_113_5534">
<rect width="212.563" height="186.942" fill="white" transform="translate(0 64.166) rotate(-17.5698)"/>
</clipPath>
</defs>
</svg>
