<svg width="48" height="40" viewBox="0 0 48 40" fill="none" xmlns="http://www.w3.org/2000/svg">
<path d="M43.0659 10.2233C43.0964 10.6496 43.0964 11.0761 43.0964 11.5025C43.0964 24.5075 33.198 39.4923 15.1066 39.4923C9.53297 39.4923 4.35534 37.878 0 35.0761C0.791906 35.1674 1.55325 35.1979 2.37562 35.1979C6.97453 35.1979 11.2081 33.6446 14.5888 30.9949C10.2639 30.9035 6.63956 28.071 5.39081 24.1725C6 24.2638 6.60909 24.3248 7.24875 24.3248C8.13197 24.3248 9.01528 24.2029 9.83756 23.9898C5.32997 23.076 1.94916 19.1167 1.94916 14.3349V14.2132C3.25875 14.9441 4.78172 15.401 6.39581 15.4618C3.74606 13.6953 2.01009 10.6801 2.01009 7.26891C2.01009 5.44154 2.49731 3.76641 3.35016 2.30447C8.19281 8.27401 15.472 12.1724 23.6344 12.5989C23.4821 11.8679 23.3907 11.1066 23.3907 10.3451C23.3907 4.92376 27.7765 0.507568 33.2283 0.507568C36.0607 0.507568 38.6191 1.69538 40.4161 3.61416C42.6394 3.18779 44.7713 2.36541 46.6597 1.23854C45.9287 3.52285 44.3754 5.44163 42.3349 6.65982C44.3146 6.44672 46.2334 5.89838 47.9998 5.13704C46.6599 7.08619 44.9847 8.82216 43.0659 10.2233Z" fill="#101425"/>
</svg>
