<svg width="48" height="42" viewBox="0 0 48 42" fill="none" xmlns="http://www.w3.org/2000/svg">
<path d="M32.4829 12.7097C33.0415 12.7097 33.5825 12.7378 34.1236 12.8128C32.6749 5.46441 25.3353 0 16.992 0C7.63636 0 0 6.82348 0 15.5028C0 20.5079 2.55709 24.6414 6.79855 27.8375L5.11418 33.3301L11.0487 30.1339C13.1782 30.5838 14.8713 31.0431 17.0007 31.0431C17.5418 31.0431 18.0567 31.015 18.5978 30.9681C18.2487 29.759 18.0567 28.4749 18.0567 27.1439C18.048 19.1863 24.4189 12.7097 32.4829 12.7097ZM23.3629 7.75139C24.6284 7.75139 25.4749 8.66057 25.4749 10.0384C25.4749 11.3975 24.6284 12.3066 23.3629 12.3066C22.0713 12.3066 20.8058 11.3975 20.8058 10.0384C20.8145 8.66057 22.08 7.75139 23.3629 7.75139ZM11.4589 12.3066C10.1935 12.3066 8.90182 11.3975 8.90182 10.0384C8.90182 8.65119 10.1935 7.75139 11.4589 7.75139C12.7505 7.75139 13.5884 8.66057 13.5884 10.0384C13.5884 11.4068 12.7505 12.3066 11.4589 12.3066ZM48 26.9377C48 19.6362 41.2015 13.6938 33.5651 13.6938C25.4749 13.6938 19.1302 19.6362 19.1302 26.9377C19.1302 34.2392 25.4836 40.1817 33.5651 40.1817C35.2495 40.1817 36.96 39.7036 38.6793 39.2537L43.3396 42L42.048 37.4448C45.4691 34.6891 48 31.0431 48 26.9377ZM28.8785 24.6414C28.032 24.6414 27.1942 23.7322 27.1942 22.8043C27.1942 21.8951 28.0407 20.9953 28.8785 20.9953C30.1702 20.9953 31.008 21.9045 31.008 22.8043C31.008 23.7416 30.1615 24.6414 28.8785 24.6414ZM38.2255 24.6414C37.3789 24.6414 36.5411 23.7322 36.5411 22.8043C36.5411 21.8951 37.3876 20.9953 38.2255 20.9953C39.4909 20.9953 40.3549 21.9045 40.3549 22.8043C40.3636 23.7416 39.4909 24.6414 38.2255 24.6414Z" fill="#101425"/>
</svg>
