<svg width="46" height="36" viewBox="0 0 46 36" fill="none" xmlns="http://www.w3.org/2000/svg">
<path d="M44.8043 5.63278C44.2809 3.41559 42.7387 1.66941 40.7806 1.07681C37.2315 0 22.9997 0 22.9997 0C22.9997 0 8.76806 0 5.21881 1.07681C3.26072 1.6695 1.71856 3.41559 1.19514 5.63278C0.244141 9.65156 0.244141 18.0364 0.244141 18.0364C0.244141 18.0364 0.244141 26.4212 1.19514 30.44C1.71856 32.6572 3.26072 34.3306 5.21881 34.9232C8.76806 36 22.9997 36 22.9997 36C22.9997 36 37.2314 36 40.7806 34.9232C42.7387 34.3306 44.2809 32.6572 44.8043 30.44C45.7553 26.4212 45.7553 18.0364 45.7553 18.0364C45.7553 18.0364 45.7553 9.65156 44.8043 5.63278ZM18.3451 25.6492V10.4236L30.2401 18.0366L18.3451 25.6492Z" fill="#101425"/>
</svg>
